<svg width="512" height="512" viewBox="0 0 512 512" fill="none" xmlns="http://www.w3.org/2000/svg">
<path d="M473.228 380.375C490.96 346.471 501.001 307.91 501.001 266.998C501.001 131.687 391.31 21.9961 255.999 21.9961C120.688 21.9961 10.9969 131.687 10.9969 266.998C10.9969 307.91 21.0389 346.471 38.7709 380.375H473.228Z" fill="#88CE65"/>
<path d="M255.739 364.665C271.906 364.665 287.641 359.806 300.914 350.809C310.929 336.553 318.437 319.059 317.264 299.301C316.141 280.392 307.666 268.563 307.352 268.134C305.584 265.413 304.057 262.047 302.8 258.123H299.724C297.137 260.555 294.55 262.762 292.019 264.727C281.667 272.766 268.893 277.132 255.737 277.132C242.581 277.132 229.807 272.766 219.455 264.727C216.925 262.762 214.338 260.555 211.751 258.123H209.094C209.164 258.191 209.23 258.264 209.3 258.332C208.028 262.382 206.47 265.841 204.665 268.625C204.045 269.486 195.836 281.233 194.732 299.823C193.568 319.434 200.955 336.813 210.858 351.011C224.071 359.88 239.693 364.665 255.739 364.665V364.665Z" fill="#FFADA3"/>
<path d="M255.739 277.132C242.583 277.132 229.809 272.766 219.457 264.727C216.927 262.762 214.34 260.555 211.753 258.123H209.096C209.166 258.191 209.232 258.264 209.302 258.332C208.03 262.382 206.472 265.841 204.667 268.625C204.047 269.486 195.838 281.233 194.734 299.823C193.57 319.434 200.957 336.813 210.86 351.011C255.359 341.293 255.739 277.132 255.739 277.132V277.132Z" fill="#FF988A"/>
<path d="M208.364 347.269C214.877 357.455 222.837 366.165 230.259 373.073C231.969 374.664 232.949 376.918 232.949 379.256V510.912C240.54 511.621 248.225 512 256 512C263.775 512 271.46 511.621 279.05 510.913V379.554C279.135 379.142 278.577 375.495 281.739 372.55C289.098 365.701 296.984 357.08 303.466 347.006C289.681 357.155 272.954 362.664 255.739 362.664C238.67 362.665 222.081 357.253 208.364 347.269Z" fill="#6C5475"/>
<path d="M230.26 373.073C231.97 374.664 232.95 376.918 232.95 379.256V384.865C240.298 387.03 247.967 388.164 255.739 388.164C263.696 388.164 271.544 386.973 279.05 384.705V379.553C279.135 379.141 278.577 375.494 281.739 372.55C289.098 365.701 296.984 357.08 303.466 347.006C289.681 357.155 272.955 362.664 255.739 362.664C238.67 362.664 222.081 357.252 208.364 347.268C214.877 357.456 222.837 366.165 230.26 373.073V373.073Z" fill="#45304C"/>
<path d="M376.305 304.066C376.305 304.066 371.334 373.779 277.549 379.256V511.046C289.038 510.045 300.299 508.248 311.278 505.715L389.108 472.693C398.072 466.88 406.635 460.501 414.74 453.599C414.74 434.71 414.74 417.172 414.74 404.574C414.74 377.375 435.949 355.005 453.691 341.047C432.041 322.105 391.152 318.913 376.305 304.066V304.066Z" fill="#3E7FDD"/>
<path d="M158.193 361.243C151.98 361.733 125.436 365.182 125.436 388.165V473.889L201.285 505.847C212.085 508.311 223.158 510.061 234.45 511.046V379.256C198.309 377.146 175.367 365.494 160.806 351.97C159.572 354.755 158.699 357.848 158.193 361.243Z" fill="#3E7FDD"/>
<path d="M135.695 304.066C120.956 318.805 80.5519 322.059 58.7849 340.639C76.6299 354.566 98.2599 377.105 98.2599 404.574V454.445C106.239 461.166 114.656 467.382 123.457 473.054L126.937 474.521C126.937 449.878 126.937 405.592 126.937 388.165C126.937 363.433 159.516 362.665 159.516 362.665C159.957 358.992 160.811 355.81 161.979 353.05C137.636 331.29 135.695 304.066 135.695 304.066V304.066Z" fill="#266FC6"/>
<path d="M370.891 276.536C357.923 262.725 334.108 251.621 315.719 240.733C315.719 240.733 315.433 240.896 314.833 241.223C310.478 247.392 305.754 252.781 300.999 257.387C302.086 261.032 303.721 265.299 306.095 268.953C306.095 268.953 340.347 315.954 280.718 371.454C278.698 373.334 277.549 375.976 277.549 378.735C277.549 385.293 283.775 390.08 290.104 388.363C307.847 383.55 340.856 372.621 365.643 352.877C389.359 333.986 391.645 298.639 370.891 276.536V276.536Z" fill="#D3DCFB"/>
<path d="M203.259 335.02C198.782 334.259 181.923 332.131 169.899 340.729C163.47 345.327 159.536 352.223 158.193 361.243C157.96 361.261 157.69 361.285 157.403 361.313C180.255 376.131 206.684 384.758 221.895 388.885C228.224 390.602 234.45 385.814 234.45 379.256C234.45 376.497 233.301 373.855 231.282 371.975C217.375 359.032 208.578 346.551 203.259 335.02V335.02Z" fill="#D3DCFB"/>
<path d="M205.905 269.475C208.283 265.815 209.919 261.54 211.007 257.892C206.172 253.27 201.354 247.844 196.912 241.607C196.492 241.377 196.281 241.257 196.281 241.257C177.892 252.144 154.077 263.248 141.109 277.059C120.355 299.163 122.641 334.509 146.357 353.399C150.546 356.735 154.972 359.814 159.517 362.66C163.674 328.1 204.053 336.694 204.053 336.694L204.055 336.69C185.182 297.925 205.905 269.475 205.905 269.475Z" fill="#BEC8F7"/>
<path d="M238.248 1.09404C185.568 8.27204 180.561 38.14 180.538 49.098C180.533 51.396 179.26 53.526 177.194 54.531C149.792 67.861 164.566 134.108 164.566 134.108C167.318 134.292 172.198 135.406 174.346 136.447C174.872 133.173 175.731 127.95 176.944 124.835C177.868 122.461 179.023 120.063 180.467 117.797C182.973 113.866 184.114 109.228 183.774 104.591C182.789 91.188 181.263 66.778 198.955 58.817C213.943 52.073 232.329 55.978 244.053 59.877C251.667 62.409 259.915 62.409 267.53 59.877C279.255 55.978 297.64 52.073 312.628 58.817C330.269 66.755 328.792 91.038 327.818 104.476C327.479 109.148 328.59 113.834 331.115 117.796C332.606 120.135 333.789 122.615 334.728 125.064C335.895 128.109 336.725 133.254 337.238 136.448C339.946 135.136 345.816 133.707 349.127 134.175C349.532 120.127 350.829 102.982 350.829 102.982C366.44 26.521 294.97 -6.63496 238.248 1.09404V1.09404Z" fill="#56415E"/>
<path d="M238.248 1.09406C185.568 8.27206 180.561 38.1401 180.538 49.0981C180.533 51.3961 179.26 53.5261 177.194 54.5311C149.792 67.8611 164.566 134.108 164.566 134.108C167.318 134.292 172.198 135.406 174.346 136.447C174.872 133.173 175.731 127.95 176.944 124.834C177.868 122.46 179.023 120.062 180.467 117.796C182.973 113.865 184.114 109.227 183.774 104.59C182.789 91.1871 181.263 66.7771 198.955 58.8161C213.943 52.0721 232.329 55.9771 244.053 59.8761C246.39 60.6531 248.787 61.1891 251.207 61.4891C250.853 60.7611 250.479 60.0391 250.066 59.3281C227.103 19.7601 261.086 0.17406 261.086 0.17406C253.373 -0.22294 245.684 0.0810599 238.248 1.09406V1.09406Z" fill="#45304C"/>
<path d="M355.047 133.998C350.944 130.238 341.771 132.144 338.237 134.446C339.011 139.267 339.055 144.199 338.387 149.069L334.217 179.441C334.217 181.889 334.14 184.291 333.998 186.652C344.167 189.719 350.218 180.59 351.069 174.325C351.435 171.628 352.034 168.97 352.865 166.376C355.569 157.929 365.327 143.419 355.047 133.998Z" fill="#FFADA3"/>
<path d="M156.535 133.998C160.638 130.238 169.811 132.144 173.345 134.446C172.571 139.267 172.527 144.199 173.196 149.069L177.366 179.441C177.366 181.889 177.443 184.291 177.585 186.652C167.416 189.719 161.365 180.59 160.514 174.325C160.148 171.628 159.549 168.97 158.718 166.376C156.013 157.929 146.255 143.419 156.535 133.998Z" fill="#FF988A"/>
<path d="M336.728 125.063C335.789 122.614 334.606 120.134 333.115 117.795C330.59 113.833 329.479 109.147 329.817 104.475C330.79 91.036 330.268 64.754 312.627 56.816C297.64 50.072 279.255 53.977 267.531 57.876C260.987 60.052 253.973 60.352 247.297 58.788C235.564 69.725 235.306 91.45 236.175 103.274C236.523 108.008 235.358 112.744 232.799 116.759C231.324 119.073 230.145 121.521 229.201 123.946C226.14 131.809 225.248 140.337 226.394 148.687L230.653 179.708C230.653 224.305 254.459 254.617 274.709 270.342C276.827 271.987 279.049 273.474 281.35 274.811C285.13 273.004 288.729 270.798 292.072 268.202C311.903 252.802 335.216 223.117 335.216 179.443L339.386 149.071C340.499 140.973 339.656 132.703 336.728 125.063V125.063Z" fill="#FFC1BB"/>
<path d="M274.891 268.2C255.06 252.8 231.746 223.115 231.746 179.441L227.575 149.062C226.452 140.885 227.326 132.533 230.323 124.833C231.247 122.459 232.402 120.061 233.846 117.795C236.352 113.863 237.493 109.225 237.153 104.589C236.255 92.364 236.578 69.325 250.065 59.328C248.032 59.012 246.02 58.53 244.05 57.875C232.326 53.976 213.941 50.071 198.954 56.815C181.262 64.775 180.788 91.186 181.773 104.589C182.114 109.225 180.972 113.863 178.466 117.795C177.022 120.061 175.867 122.459 174.943 124.833C171.946 132.533 171.072 140.885 172.195 149.062L176.366 179.441C176.366 223.115 199.68 252.8 219.511 268.2C229.862 276.238 242.636 280.604 255.792 280.604C265.505 280.604 275.007 278.217 283.483 273.737C280.478 272.149 277.6 270.304 274.891 268.2V268.2Z" fill="#FFADA3"/>
<path d="M411.74 456.137C436.968 435.34 457.951 409.585 473.228 380.375C470.455 370.262 467.279 361.161 463.638 353.733C460.948 348.246 457.006 343.703 452.249 339.834C434.217 353.69 411.739 376.574 411.739 404.574C411.74 417.736 411.74 436.284 411.74 456.137Z" fill="#548BED"/>
<path d="M59.75 339.834C54.994 343.702 51.051 348.246 48.361 353.733C44.72 361.161 41.544 370.262 38.771 380.375C54.048 409.585 75.031 435.34 100.259 456.137C100.259 436.284 100.259 417.736 100.259 404.574C100.26 376.574 77.782 353.69 59.75 339.834Z" fill="#548BED"/>
<path d="M377.172 471.233H323.172C316.572 471.233 311.172 465.833 311.172 459.233V505.761C339.339 499.279 365.644 487.932 389.172 472.666V459.235C389.172 465.833 383.772 471.233 377.172 471.233V471.233Z" fill="#72AAFC"/>
<path d="M381.829 426.733H318.515C314.476 426.733 311.172 430.037 311.172 434.076V461.233C311.172 467.833 316.572 473.233 323.172 473.233H377.172C383.772 473.233 389.172 467.833 389.172 461.233V434.076C389.172 430.037 385.868 426.733 381.829 426.733V426.733Z" fill="#94C5FF"/>
<path d="M189.351 471.233H135.351C128.751 471.233 123.352 465.835 123.351 459.236V473.01C146.89 488.198 173.197 499.46 201.351 505.875V459.233C201.351 465.833 195.951 471.233 189.351 471.233Z" fill="#72AAFC"/>
<path d="M194.008 426.733H130.694C126.655 426.733 123.351 430.037 123.351 434.076V461.233C123.351 467.833 128.751 473.233 135.351 473.233H189.351C195.951 473.233 201.351 467.833 201.351 461.233V434.076C201.35 430.037 198.046 426.733 194.008 426.733Z" fill="#94C5FF"/>
<path d="M192.819 449.811C188.126 449.811 184.287 445.972 184.287 441.279V371.196C184.287 366.503 188.126 362.664 192.819 362.664C197.512 362.664 201.351 366.503 201.351 371.196V441.279C201.35 445.972 197.511 449.811 192.819 449.811Z" fill="#DEEEFF"/>
<path d="M319.704 449.811C315.011 449.811 311.172 445.972 311.172 441.279V371.196C311.172 366.503 315.011 362.664 319.704 362.664C324.397 362.664 328.236 366.503 328.236 371.196V441.279C328.236 445.972 324.396 449.811 319.704 449.811Z" fill="#DEEEFF"/>
<path d="M411.6 77.7461C393.829 89.8911 380.38 108.488 385.063 136.446C397.333 209.699 340.815 247.071 429.146 286.345C460.551 300.309 480.331 316.645 492.648 330.612C498.092 310.326 501.002 289.002 501.002 266.997C501.002 190.773 466.19 122.681 411.6 77.7461V77.7461Z" fill="#B4D667"/>
<path d="M100.4 77.7461C118.171 89.8911 131.62 108.488 126.937 136.446C114.667 209.699 171.185 247.071 82.8539 286.345C51.4489 300.309 31.6689 316.645 19.3519 330.612C13.9079 310.326 10.9979 289.002 10.9979 266.997C10.9979 190.773 45.8099 122.681 100.4 77.7461V77.7461Z" fill="#B4D667"/>
</svg>
