<svg width="492" height="512" viewBox="0 0 492 512" fill="none" xmlns="http://www.w3.org/2000/svg">
<path d="M45.726 408.143H446.274C474.446 368.243 491.002 319.556 491.002 266.998C491.002 131.687 381.311 21.996 246 21.996C110.689 21.996 0.998047 131.687 0.998047 266.998C0.998047 319.556 17.554 368.243 45.726 408.143V408.143Z" fill="#FFC839"/>
<path d="M441.626 396.858C426.389 366.385 399.647 357.876 387.463 355.536C387.463 355.536 356.3 349.847 328.766 338.652C327.919 341.359 326.073 343.761 323.365 345.221C304.581 355.349 279.245 363.658 246.666 363.658C240.031 363.658 233.712 363.298 227.672 362.663C227.828 363.014 227.976 363.363 228.141 363.717C221.435 364.565 199.958 367.829 178.725 376.938C144.704 391.53 126.721 414.392 126.721 443.052V481.042C162.02 500.758 202.695 512 246 512C328.753 512 401.917 470.967 446.274 408.143C444.874 404.052 443.331 400.268 441.626 396.858V396.858Z" fill="#72AAFC"/>
<path d="M164.404 338.172C136.591 349.684 104.537 355.536 104.537 355.536C92.3521 357.876 65.6111 366.385 50.3741 396.858C48.6691 400.268 47.1271 404.052 45.7261 408.143C67.2001 438.557 95.4251 463.863 128.221 481.88C128.221 471.601 128.221 458.849 128.221 443.052C128.221 374.54 230.411 364.964 230.411 364.964C230.051 364.248 229.718 363.545 229.397 362.848C204.972 360.529 185.279 353.478 169.952 345.21C167.088 343.664 165.176 341.071 164.404 338.172V338.172Z" fill="#548BED"/>
<path d="M330.258 330.117L311.056 299.275C308.354 294.935 303.16 292.874 298.202 294.121C283.215 297.892 265.625 300.739 246.666 300.739C244.69 300.739 242.733 300.701 240.788 300.641V317.048C237.89 318.484 229.063 323.583 225.181 334.033C221.982 342.646 222.978 352.623 228.14 363.716C227.109 363.846 225.726 364.034 224.052 364.292C231.183 365.163 238.708 365.657 246.665 365.657C280.322 365.657 306.496 357.074 325.901 346.611C331.841 343.409 333.824 335.845 330.258 330.117V330.117Z" fill="#548BED"/>
<path d="M195.118 294.112C190.159 292.863 184.964 294.924 182.261 299.265L163.061 330.105C159.495 335.833 161.477 343.395 167.416 346.599C183.576 355.316 204.447 362.71 230.404 364.947C212.945 330.193 242.288 318.005 242.288 318.005V300.683C224.999 300.287 208.95 297.596 195.118 294.112Z" fill="#3E7FDD"/>
<path d="M334.664 282.618C327.915 258.98 325.117 240.527 324.511 226.268C319.385 244.765 312.686 261.143 304.526 275.106C299.818 283.164 293.974 290.38 287.187 296.633C277.048 355.784 296.007 400.343 310.927 424.693C314.071 429.824 322.449 427.672 322.368 421.747C321.697 372.709 352.837 346.267 334.664 282.618V282.618Z" fill="#45304C"/>
<path d="M246.655 39.38C262.381 39.38 275.722 42.407 286.952 47.071C287.269 45.021 287.436 42.92 287.436 40.781C287.435 18.258 269.177 0 246.655 0C224.133 0 205.874 18.258 205.874 40.781C205.874 42.92 206.041 45.02 206.358 47.071C217.588 42.407 230.929 39.38 246.655 39.38Z" fill="#56415E"/>
<path d="M246.655 30.74C230.627 14.712 246.655 0 246.655 0C224.133 0 205.874 18.258 205.874 40.781C205.874 42.92 206.041 45.02 206.358 47.071C217.588 42.407 230.929 39.381 246.655 39.381V30.74Z" fill="#45304C"/>
<path d="M199.232 52.997C211.815 46.505 227.462 42 246.655 42C265.848 42 281.495 46.505 294.078 52.998C296.313 54.151 298.47 55.405 300.562 56.736C287.932 40.9 268.485 30.74 246.655 30.74C224.825 30.74 205.378 40.899 192.748 56.735C194.839 55.404 196.997 54.15 199.232 52.997Z" fill="#D3DCFB"/>
<path d="M166.96 166.835C168.101 163.102 169.662 159.87 171.773 157.491C173.673 155.35 174.865 152.701 174.95 149.867C175.444 133.312 181.807 79.676 242.914 103.101C245.315 104.021 247.995 104.021 250.396 103.101C311.503 79.676 317.866 133.312 318.36 149.867C318.445 152.701 319.637 155.35 321.537 157.491C323.648 159.87 325.209 163.102 326.35 166.835V166.834C329.446 164.77 334.253 163.347 338.597 163.449L338.598 163.436V123.255C338.598 92.806 321.624 64.587 294.078 50.376C281.495 43.884 265.848 39.379 246.655 39.379C227.462 39.379 211.815 43.884 199.232 50.376C171.686 64.587 154.712 92.806 154.712 123.255V163.436L154.713 163.449C159.057 163.348 163.864 164.771 166.96 166.835V166.835Z" fill="#56415E"/>
<path d="M246.655 39.38C227.462 39.38 211.815 43.885 199.232 50.377C171.686 64.588 154.712 92.807 154.712 123.256V163.437L154.713 163.45C159.058 163.348 163.864 164.772 166.96 166.835C168.101 163.102 169.662 159.87 171.773 157.491C173.673 155.35 174.865 152.701 174.95 149.867C175.435 133.63 181.572 81.73 239.463 101.846C239.221 101.53 238.989 101.212 238.727 100.9C211.565 68.57 246.655 39.38 246.655 39.38V39.38Z" fill="#45304C"/>
<path d="M166.203 214.572C166.203 214.572 161.216 183.011 166.96 164.215C161.748 160.741 151.679 159.045 147.151 163.472C137.879 172.536 144.673 186.224 147.924 194.87C148.922 197.525 149.566 200.21 149.857 202.9C150.49 208.745 153.659 217.3 166.799 217.099C166.6 216.257 166.397 215.428 166.203 214.572V214.572Z" fill="#FC9460"/>
<path d="M346.159 163.472C341.63 159.045 331.561 160.741 326.35 164.215C332.094 183.011 327.107 214.572 327.107 214.572C326.913 215.428 326.71 216.257 326.511 217.099C339.652 217.301 342.821 208.746 343.454 202.9C343.745 200.21 344.389 197.525 345.387 194.87C348.637 186.224 355.431 172.536 346.159 163.472V163.472Z" fill="#FFAA7B"/>
<path d="M322.027 154.436C320.134 152.302 319.092 149.809 319.015 147.227C318.722 137.399 316.24 113.345 299.57 102.244C287.745 94.3701 271.122 94.452 250.162 102.49C247.9 103.357 245.409 103.357 243.148 102.49C240.607 101.516 238.132 100.664 235.719 99.923C218.751 111.301 216.219 135.832 215.92 145.865C215.841 148.507 214.777 151.055 212.839 153.237C202.164 165.267 204.502 200.413 206.992 214.882C212.508 239.228 220.498 260.457 230.736 277.98C239.204 292.472 251.237 304.32 265.883 312.755C282.15 304.428 295.435 291.975 304.526 276.415C314.536 259.285 322.349 238.526 327.754 214.673C330.094 199.8 332.586 166.335 322.027 154.436V154.436Z" fill="#FFC7AB"/>
<path d="M231.562 276.416C221.55 259.281 213.737 238.523 208.344 214.716C205.908 200.567 203.623 166.2 214.061 154.436C215.956 152.302 216.997 149.81 217.074 147.227C217.367 137.399 219.849 113.343 236.519 102.243C237.236 101.765 237.973 101.319 238.726 100.9C219.842 94.494 204.719 94.934 193.74 102.243C177.069 113.344 174.588 137.399 174.295 147.227C174.218 149.81 173.177 152.302 171.282 154.436C160.843 166.199 163.129 200.567 165.565 214.716C170.959 238.523 178.772 259.281 188.783 276.416C198.947 293.811 214.34 307.34 233.296 315.541C241.787 319.213 251.523 319.214 260.012 315.541C262.77 314.348 265.442 313.029 268.043 311.615C252.761 303.308 240.248 291.28 231.562 276.416Z" fill="#FFAA7B"/>
<path d="M396.128 73.3831C380.103 86.4541 363.972 107.431 373.479 135.256C390.447 184.919 346.078 252.746 395.93 302.598C425.267 331.935 460.335 330.535 484.233 324.416C488.657 305.999 491.003 286.773 491.003 266.998C491.002 188.259 453.85 118.205 396.128 73.3831V73.3831Z" fill="#FFDD40"/>
<path d="M95.872 73.3831C111.897 86.4541 128.028 107.431 118.521 135.256C101.553 184.919 145.922 252.746 96.07 302.598C66.733 331.935 31.665 330.535 7.76705 324.416C3.34305 305.999 0.998047 286.773 0.998047 266.998C0.998047 188.259 38.15 118.205 95.872 73.3831V73.3831Z" fill="#FFDD40"/>
<path d="M412.118 447.066C407.187 427.332 394.958 415.886 385.044 409.618C378.793 405.666 370.642 410.114 370.642 417.51V477.96C385.558 469.127 399.455 458.755 412.118 447.066Z" fill="#548BED"/>
<path d="M306.888 318.295C306.888 345.058 311.303 371.158 330.339 374.393C337.812 348.594 346.237 323.15 334.664 282.618C334.385 281.641 334.123 280.686 333.857 279.726C321.486 286.358 306.888 298.397 306.888 318.295V318.295Z" fill="#56415E"/>
</svg>
