<svg width="512" height="512" viewBox="0 0 512 512" fill="none" xmlns="http://www.w3.org/2000/svg">
<path d="M256 512C379.712 512 480 411.712 480 288C480 164.288 379.712 64 256 64C132.288 64 32 164.288 32 288C32 411.712 132.288 512 256 512Z" fill="#981BF1"/>
<path d="M424 435.2C412.8 414.4 392 400 368 400H144C118.4 400 97.6 414.4 88 435.2C128 481.6 188.8 512 256 512C323.2 512 384 481.6 424 435.2Z" fill="#FF88B6"/>
<path d="M208 336V416C208 443.2 228.8 464 256 464C283.2 464 304 443.2 304 416V336H208Z" fill="#F9D6B7"/>
<path d="M336 0C291.2 0 256 35.2 256 80C256 105.6 268.8 129.6 288 144V272C288 342.4 345.6 400 416 400V80C416 35.2 380.8 0 336 0Z" fill="#FED049"/>
<path d="M352 400L304 352V480L336 448L320 432L352 400Z" fill="#FF4081"/>
<path d="M160 400L208 352V480L176 448L192 432L160 400Z" fill="#FF4081"/>
<path d="M208 320L304 416V320H208Z" fill="#FFB9A1"/>
<path d="M144 96V256C144 318.4 193.6 368 256 368C318.4 368 368 318.4 368 256V96H144Z" fill="#FFE3C5"/>
<path d="M288 96V192C270.4 192 256 206.4 256 224V240H233.6C236.8 249.6 246.4 256 256 256V368C318.4 368 368 318.4 368 256V96H288Z" fill="#F9D6B7"/>
<path d="M296 168H344V184H296V168Z" fill="#FED049"/>
<path d="M168 168H216V184H168V168Z" fill="#FED049"/>
<path d="M256 32C180.8 32 120 92.8 120 168V248V256H144V192C192 192 233.6 164.8 256 124.8V128C256 145.6 270.4 160 288 160C297.6 160 305.6 155.2 312 148.8C318.4 155.2 326.4 160 336 160C353.6 160 368 145.6 368 128V256H392C392 252.8 392 251.2 392 248V168C392 92.8 331.2 32 256 32Z" fill="#FFE167"/>
<path d="M320 257.6C327.069 257.6 332.8 251.869 332.8 244.8C332.8 237.731 327.069 232 320 232C312.931 232 307.2 237.731 307.2 244.8C307.2 251.869 312.931 257.6 320 257.6Z" fill="#FFB9A1"/>
<path d="M192 257.6C199.069 257.6 204.8 251.869 204.8 244.8C204.8 237.731 199.069 232 192 232C184.931 232 179.2 237.731 179.2 244.8C179.2 251.869 184.931 257.6 192 257.6Z" fill="#FFB9A1"/>
<path d="M320 224C328.837 224 336 216.837 336 208C336 199.163 328.837 192 320 192C311.163 192 304 199.163 304 208C304 216.837 311.163 224 320 224Z" fill="#25374B"/>
<path d="M320 204.8C322.651 204.8 324.8 202.651 324.8 200C324.8 197.349 322.651 195.2 320 195.2C317.349 195.2 315.2 197.349 315.2 200C315.2 202.651 317.349 204.8 320 204.8Z" fill="#E6E6E6"/>
<path d="M192 224C200.837 224 208 216.837 208 208C208 199.163 200.837 192 192 192C183.163 192 176 199.163 176 208C176 216.837 183.163 224 192 224Z" fill="#25374B"/>
<path d="M192 204.8C194.651 204.8 196.8 202.651 196.8 200C196.8 197.349 194.651 195.2 192 195.2C189.349 195.2 187.2 197.349 187.2 200C187.2 202.651 189.349 204.8 192 204.8Z" fill="#E6E6E6"/>
<path d="M368 208H352V272H368C385.6 272 400 257.6 400 240C400 222.4 385.6 208 368 208Z" fill="#F9D6B7"/>
<path d="M144 208H160V272H144C126.4 272 112 257.6 112 240C112 222.4 126.4 208 144 208Z" fill="#FFE3C5"/>
<path d="M128 284.8C135.069 284.8 140.8 279.069 140.8 272C140.8 264.931 135.069 259.2 128 259.2C120.931 259.2 115.2 264.931 115.2 272C115.2 279.069 120.931 284.8 128 284.8Z" fill="#E6E6E6"/>
<path d="M384 284.8C391.069 284.8 396.8 279.069 396.8 272C396.8 264.931 391.069 259.2 384 259.2C376.931 259.2 371.2 264.931 371.2 272C371.2 279.069 376.931 284.8 384 284.8Z" fill="#E6E6E6"/>
<path d="M288 20.8C284.8 20.8 281.6 22.4 280 24C278.4 22.4 275.2 20.8 272 20.8C265.6 20.8 259.2 25.6 259.2 33.6C259.2 41.6 264 46.4001 272 46.4001C275.2 46.4001 278.4 44.8001 280 43.2001C281.6 44.8001 284.8 46.4001 288 46.4001C294.4 46.4001 300.8 41.6 300.8 33.6C300.8 25.6 294.4 20.8 288 20.8V20.8Z" fill="#FF4081"/>
<path d="M256 336C291.2 336 320 307.2 320 272H192C192 307.2 220.8 336 256 336Z" fill="#E6E6E6"/>
<path d="M256 448L208 400V507.2C224 510.4 240 512 256 512C272 512 288 510.4 304 507.2V400L256 448Z" fill="#E6E6E6"/>
</svg>
