<svg width="512" height="512" viewBox="0 0 512 512" fill="none" xmlns="http://www.w3.org/2000/svg">
<path d="M256 512C379.712 512 480 411.712 480 288C480 164.288 379.712 64 256 64C132.288 64 32 164.288 32 288C32 411.712 132.288 512 256 512Z" fill="#FCCCBB"/>
<path d="M424 435.2C412.8 414.4 392 400 368 400H144C118.4 400 97.6 414.4 88 435.2C128 481.6 188.8 512 256 512C323.2 512 384 481.6 424 435.2Z" fill="#FF3939"/>
<path d="M208 352V432C208 459.2 228.8 480 256 480C283.2 480 304 459.2 304 432V352H208Z" fill="#BF8862"/>
<path d="M208 336L304 432V336H208Z" fill="#AF7751"/>
<path d="M144 80V272C144 334.4 193.6 384 256 384C318.4 384 368 334.4 368 272V80H144Z" fill="#D3A17D"/>
<path d="M288 96V208C270.4 208 256 222.4 256 240V256H233.6C236.8 265.6 246.4 272 256 272V384C318.4 384 368 334.4 368 272V96H288Z" fill="#BF8862"/>
<path d="M296 168H344V184H296V168Z" fill="#25374B"/>
<path d="M168 168H216V184H168V168Z" fill="#25374B"/>
<path d="M320 257.6C327.069 257.6 332.8 251.869 332.8 244.8C332.8 237.731 327.069 232 320 232C312.931 232 307.2 237.731 307.2 244.8C307.2 251.869 312.931 257.6 320 257.6Z" fill="#AF7751"/>
<path d="M192 257.6C199.069 257.6 204.8 251.869 204.8 244.8C204.8 237.731 199.069 232 192 232C184.931 232 179.2 237.731 179.2 244.8C179.2 251.869 184.931 257.6 192 257.6Z" fill="#AF7751"/>
<path d="M368 11.2V0C358.4 0 350.4 4.8 344 11.2V0C334.4 0 326.4 4.8 320 11.2V0C302.4 0 288 14.4 288 32V0C270.4 0 256 14.4 256 32C256 14.4 241.6 0 224 0V32C224 14.4 209.6 0 192 0V11.2C185.6 4.8 177.6 0 168 0V11.2C161.6 4.8 153.6 0 144 0V11.2C137.6 4.8 129.6 0 120 0V256H144V128H192V144C201.6 144 208 137.6 208 128V144C217.6 144 224 137.6 224 128H368V256H392V0C382.4 0 374.4 4.8 368 11.2Z" fill="#25374B"/>
<path d="M368 208C385.6 208 400 222.4 400 240C400 257.6 385.6 272 368 272V208Z" fill="#BF8862"/>
<path d="M144 208C126.4 208 112 222.4 112 240C112 257.6 126.4 272 144 272V208Z" fill="#BF8862"/>
<path d="M320 224C328.837 224 336 216.837 336 208C336 199.163 328.837 192 320 192C311.163 192 304 199.163 304 208C304 216.837 311.163 224 320 224Z" fill="#25374B"/>
<path d="M320 204.8C322.651 204.8 324.8 202.651 324.8 200C324.8 197.349 322.651 195.2 320 195.2C317.349 195.2 315.2 197.349 315.2 200C315.2 202.651 317.349 204.8 320 204.8Z" fill="#E6E6E6"/>
<path d="M192 224C200.837 224 208 216.837 208 208C208 199.163 200.837 192 192 192C183.163 192 176 199.163 176 208C176 216.837 183.163 224 192 224Z" fill="#25374B"/>
<path d="M192 204.8C194.651 204.8 196.8 202.651 196.8 200C196.8 197.349 194.651 195.2 192 195.2C189.349 195.2 187.2 197.349 187.2 200C187.2 202.651 189.349 204.8 192 204.8Z" fill="#E6E6E6"/>
<path d="M256 352C291.2 352 320 323.2 320 288H192C192 323.2 220.8 352 256 352Z" fill="#E6E6E6"/>
</svg>
