<svg width="490" height="512" viewBox="0 0 490 512" fill="none" xmlns="http://www.w3.org/2000/svg">
<path d="M432.228 425.001C468.263 382.343 489.998 327.215 489.998 267.001C489.998 131.692 380.308 22.002 244.999 22.002C109.69 22.002 0.000976562 131.692 0.000976562 267.001C0.000976562 327.492 21.936 382.851 58.269 425.589L432.228 425.001Z" fill="#FF4155"/>
<path d="M330.178 379.922C298.286 433.891 246.865 434.364 246.865 434.364C246.865 434.364 195.488 433.891 163.595 379.985C162.864 380.871 162.111 381.732 161.308 382.535C157.029 383.522 152.814 384.611 148.643 385.776C150.937 386.775 152.933 388.474 154.266 390.751C173.877 424.245 208.069 464.252 246.975 464.252C285.881 464.252 320.073 424.245 339.684 390.751C341.008 388.491 342.985 386.8 345.258 385.797C341.062 384.623 336.822 383.528 332.517 382.535C331.695 381.714 330.925 380.831 330.178 379.922V379.922Z" fill="#FCAD6D"/>
<path d="M217.866 427.659C200.919 420.893 179.756 407.302 163.594 379.986C162.863 380.872 162.11 381.734 161.307 382.536C157.028 383.524 152.813 384.612 148.642 385.778C150.936 386.777 152.932 388.476 154.265 390.753C165.628 410.161 181.888 431.754 201.124 446.485C202.122 446.103 202.975 445.734 203.648 445.373C211.104 441.375 215.575 433.181 217.866 427.659Z" fill="#FD995B"/>
<path d="M377.813 102.363C377.813 75.0321 362.067 63.7071 351.652 59.2061C346.403 56.9371 342.304 52.7991 340.219 47.6331C335.662 36.3401 322.776 16.7721 286.744 4.81405C233.769 -12.7679 186.68 22.9621 161.369 29.7681C144.724 34.2431 131.644 24.3711 124.637 17.0861C121.676 14.0071 116.412 14.9391 114.731 18.8111C109.26 31.4131 101.289 56.1971 108.582 81.9711C109.029 83.5501 107.429 84.9581 105.828 84.409C103.712 83.684 101.811 83.0081 100.284 82.4541C98.7199 81.8881 97.1599 83.3011 97.6569 84.8371C103.821 103.889 109.796 114.757 115.158 120.619C117.531 123.213 119.117 126.396 119.527 129.831C120.324 136.522 121.662 143.654 123.867 150.261C127.122 160.016 129.163 170.124 129.751 180.391C129.758 180.511 129.763 180.581 129.767 180.595H366.691C366.702 180.546 366.715 180.375 366.73 180.102C367.305 170.034 369.269 160.09 372.498 150.537C379.694 129.253 377.813 102.363 377.813 102.363V102.363Z" fill="#41416B"/>
<path d="M194.188 114.632C194.188 114.632 216.199 88.2671 200.864 58.5131C185.529 28.7591 222.608 5.26611 222.608 5.26611C197.117 12.7281 175.734 25.9061 161.369 29.7681C144.725 34.2441 131.644 24.3711 124.637 17.0861C121.676 14.0071 116.412 14.9391 114.731 18.8111C109.26 31.4131 101.289 56.1971 108.582 81.9711C109.029 83.5501 107.429 84.9581 105.828 84.4091C103.712 83.6841 101.811 83.0081 100.284 82.4541C98.7199 81.8881 97.1599 83.3011 97.6569 84.8371C103.821 103.889 109.796 114.758 115.158 120.619C117.531 123.213 119.117 126.396 119.527 129.831C120.324 136.522 121.662 143.653 123.867 150.261C127.122 160.016 129.163 170.124 129.751 180.391C129.758 180.511 129.763 180.581 129.767 180.595H179.73L194.188 114.632Z" fill="#35355E"/>
<path d="M374.261 179.539C368.948 174.67 358.364 177.138 353.788 180.12C354.791 186.363 354.847 192.749 353.982 199.056L348.582 238.385C348.582 241.555 348.482 244.666 348.298 247.722C361.466 251.694 368.006 239.872 369.108 231.76C369.582 228.268 370.358 224.826 371.433 221.467C374.937 210.528 387.573 191.738 374.261 179.539Z" fill="#FCAD6D"/>
<path d="M364.261 216.751C359.374 216.751 355.057 214.356 352.385 210.687L348.582 238.385C348.582 241.555 348.482 244.666 348.298 247.722C361.466 251.694 368.006 239.873 369.108 231.76C369.582 228.268 370.358 224.826 371.434 221.467C372.34 218.637 373.858 215.278 375.38 211.647C372.685 214.768 368.708 216.751 364.261 216.751V216.751Z" fill="#FD995B"/>
<path d="M119.474 179.539C124.787 174.67 135.371 177.138 139.947 180.12C138.944 186.363 138.887 192.749 139.754 199.056L145.154 238.385C145.154 241.555 145.254 244.666 145.438 247.722C132.271 251.694 125.73 239.872 124.628 231.76C124.154 228.268 123.378 224.826 122.303 221.467C118.798 210.528 106.162 191.738 119.474 179.539Z" fill="#FCAD6D"/>
<path d="M346.996 159.694C343.726 154.564 342.288 148.496 342.726 142.445C342.991 138.781 343.167 134.376 343.072 129.615C343.034 128.989 343.014 128.31 343.014 127.57C342.964 126.183 342.887 124.771 342.783 123.343C341.501 110.598 334.651 101.419 329.196 96.023C325.553 92.419 319.936 91.711 315.449 94.185C248.011 131.371 192.122 117.633 162.031 104.089C158.385 102.448 154.179 104.575 153.221 108.457C150.219 120.623 150.372 133.779 151.02 142.594C151.461 148.598 149.983 154.604 146.738 159.695C144.868 162.629 143.372 165.735 142.175 168.809C138.293 178.78 137.162 189.595 138.616 200.184L144.017 239.522C144.017 239.593 144.02 239.661 144.02 239.732C149.573 255.928 160.809 279.146 180.885 285.736L181.139 285.809C193.221 289.281 202.562 298.811 206.523 310.965C212.117 328.132 227.993 332.696 246.864 332.696C265.744 332.696 281.609 328.129 287.203 310.971C291.166 298.816 300.505 289.282 312.589 285.809L312.843 285.736C332.921 279.145 344.16 255.922 349.714 239.726C349.714 239.657 349.717 239.59 349.717 239.522L355.117 200.193C356.557 189.708 355.465 178.999 351.673 169.106C350.459 165.933 348.927 162.722 346.996 159.694Z" fill="#F9BA8F"/>
<path d="M129.474 216.751C134.361 216.751 138.678 214.356 141.35 210.687L145.153 238.385C145.153 241.555 145.253 244.666 145.436 247.722C132.268 251.694 125.728 239.873 124.626 231.76C124.152 228.268 123.376 224.826 122.3 221.467C121.394 218.637 119.876 215.278 118.354 211.647C121.05 214.768 125.027 216.751 129.474 216.751V216.751Z" fill="#FD995B"/>
<path d="M183.605 200.183C181.89 184.43 184.962 169.752 190.044 159.695C192.617 154.604 193.789 148.598 193.439 142.594C193.012 135.257 192.858 124.911 194.188 114.632C181.572 111.925 170.759 108.013 162.084 104.113C158.414 102.463 154.186 104.549 153.222 108.455C150.219 120.622 150.373 133.779 151.02 142.594C151.461 148.598 149.983 154.603 146.738 159.695C140.241 169.888 136.475 184.59 138.616 200.183L144.018 239.521C144.018 239.592 144.021 239.661 144.022 239.731C149.575 255.927 160.811 279.144 180.887 285.735L181.141 285.808C186.892 287.461 192.011 290.498 196.235 294.525C191.132 278.648 187.889 260.314 187.889 239.521L183.605 200.183Z" fill="#FCAD6D"/>
<path d="M283.714 198.959C283.714 197.108 284.06 195.347 284.679 193.746C282.273 194.927 280.33 196.264 278.947 197.393C275.719 200.025 270.108 203.364 267.035 205.129C266.454 205.463 266.691 206.35 267.361 206.35H267.664C270.515 206.35 273.351 206.795 276.059 207.687C280.756 209.234 285.25 210.003 289.406 210.257C285.991 207.915 283.714 203.733 283.714 198.959V198.959Z" fill="#FFF5EE"/>
<path d="M321.932 201.855C316.32 196.591 310.926 193.553 305.937 192.015C307.059 194.036 307.708 196.413 307.708 198.959C307.708 203.12 305.977 206.831 303.272 209.266C307.356 208.422 310.544 207.248 312.518 206.349C316.567 204.505 319.63 203.755 321.451 203.45C322.209 203.324 322.492 202.381 321.932 201.855V201.855Z" fill="#FFF5EE"/>
<path d="M283.925 194.129C283.241 195.692 282.859 197.417 282.859 199.233C282.859 203.931 285.403 208.032 289.186 210.243C294.643 210.599 299.524 210.062 303.523 209.215C306.462 206.88 308.348 203.278 308.348 199.233C308.348 196.583 307.539 194.122 306.154 192.084C297.015 189.192 289.221 191.349 283.925 194.129Z" fill="#41416B"/>
<path d="M300.357 200.033C300.357 202.731 298.17 204.918 295.472 204.918C292.774 204.918 290.587 202.731 290.587 200.033C290.587 197.335 292.774 195.148 295.472 195.148C298.17 195.148 300.357 197.335 300.357 200.033Z" fill="#35355E"/>
<path d="M332.727 183.763C331.997 178.964 329.089 167.81 317.742 165.231C306.284 162.627 282.123 167.535 272.341 169.747C269.735 170.336 267.67 172.318 266.971 174.897L264.956 182.329C264.785 182.96 265.366 183.536 265.995 183.36C273.411 181.279 307.56 172.045 317.962 175.382C325.895 177.926 329.969 181.892 331.77 184.18C332.112 184.614 332.811 184.31 332.727 183.763V183.763Z" fill="#41416B"/>
<path d="M212.623 198.959C212.623 197.108 212.277 195.347 211.658 193.746C214.064 194.927 216.007 196.264 217.391 197.393C220.619 200.025 226.23 203.364 229.302 205.129C229.883 205.463 229.646 206.35 228.976 206.35H228.673C225.822 206.35 222.986 206.795 220.278 207.687C215.581 209.234 211.087 210.003 206.931 210.257C210.346 207.915 212.623 203.733 212.623 198.959V198.959Z" fill="#FFF5EE"/>
<path d="M174.405 201.855C180.017 196.591 185.411 193.553 190.4 192.015C189.278 194.036 188.629 196.413 188.629 198.959C188.629 203.12 190.36 206.831 193.065 209.266C188.981 208.422 185.793 207.248 183.819 206.349C179.769 204.505 176.707 203.755 174.886 203.45C174.128 203.324 173.845 202.381 174.405 201.855V201.855Z" fill="#FFF5EE"/>
<path d="M212.412 194.129C213.096 195.692 213.478 197.417 213.478 199.233C213.478 203.931 210.934 208.032 207.151 210.243C201.694 210.599 196.813 210.062 192.814 209.215C189.875 206.88 187.989 203.278 187.989 199.233C187.989 196.583 188.798 194.122 190.183 192.084C199.322 189.192 207.116 191.349 212.412 194.129V194.129Z" fill="#41416B"/>
<path d="M195.98 200.033C195.98 202.731 198.167 204.918 200.865 204.918C203.563 204.918 205.75 202.731 205.75 200.033C205.75 197.335 203.563 195.148 200.865 195.148C198.167 195.148 195.98 197.335 195.98 200.033Z" fill="#35355E"/>
<path d="M163.609 183.763C164.339 178.964 167.247 167.81 178.594 165.231C190.052 162.627 214.213 167.535 223.995 169.747C226.601 170.336 228.666 172.318 229.365 174.897L231.38 182.329C231.551 182.96 230.97 183.536 230.34 183.36C222.924 181.279 188.776 172.045 178.373 175.382C170.44 177.926 166.366 181.892 164.565 184.18C164.225 184.614 163.526 184.31 163.609 183.763V183.763Z" fill="#41416B"/>
<path d="M276.792 297.78L265.884 302.081C264.657 302.565 263.302 302.62 262.04 302.24L249.469 298.449L236.899 302.24C235.636 302.62 234.281 302.565 233.054 302.081L222.146 297.78C219.133 296.592 217.653 293.185 218.841 290.172C220.026 287.167 223.426 285.676 226.449 286.867L235.462 290.421L247.721 286.724C248.909 286.353 250.147 286.38 251.218 286.725L263.475 290.421L272.488 286.867C275.496 285.683 278.904 287.151 280.096 290.172C281.286 293.186 279.806 296.592 276.792 297.78Z" fill="#FCAD6D"/>
<path d="M291.393 166.118C283.793 167.267 276.663 168.77 272.341 169.747C269.735 170.336 267.67 172.318 266.971 174.897L264.956 182.329C264.785 182.96 265.366 183.536 265.996 183.36C270.108 182.206 282.437 178.856 294.381 176.666C289.468 175.717 287.669 169.548 291.393 166.118Z" fill="#35355E"/>
<path d="M197.999 165.2C190.623 164.377 183.462 164.126 178.595 165.232C167.247 167.811 164.34 178.964 163.61 183.764C163.527 184.31 164.225 184.615 164.567 184.181C166.368 181.893 170.442 177.927 178.375 175.383C182.334 174.113 189.734 174.666 197.789 175.95C193.598 173.518 193.733 167.453 197.999 165.2V165.2Z" fill="#35355E"/>
<path d="M351.951 223.253C351.951 223.253 342.509 274.192 311.428 284.395L311.18 284.466C299.355 287.864 290.217 297.193 286.339 309.088C280.865 325.879 265.34 330.347 246.865 330.347C228.398 330.347 212.864 325.881 207.389 309.082C203.513 297.189 194.372 287.863 182.55 284.466L182.302 284.395C151.221 274.192 141.784 223.253 141.784 223.253C117.893 436.266 246.865 437.442 246.865 437.442C246.865 437.442 375.843 436.266 351.951 223.253V223.253Z" fill="#41416B"/>
<path d="M253.234 311.872H245.705C242.465 311.872 239.84 314.498 239.84 317.737C239.84 320.977 242.466 323.602 245.705 323.602H253.234C256.474 323.602 259.099 320.976 259.099 317.737C259.099 314.498 256.473 311.872 253.234 311.872Z" fill="#FCAD6D"/>
<path d="M182.302 286.436L182.55 286.507C190.581 288.815 197.368 293.863 202.114 300.588L207.596 296.946C210.745 294.854 214.457 293.717 218.236 293.838C231.372 294.259 242.88 290.431 247.415 288.678C248.739 288.166 250.201 288.166 251.525 288.678C256.06 290.431 267.568 294.259 280.704 293.838C284.483 293.717 288.195 294.854 291.344 296.946L293.379 298.298C297.982 292.724 304.093 288.545 311.181 286.508L311.429 286.437C314.354 285.477 317.088 284.155 319.64 282.549C310.712 267.275 290.253 245.815 249.47 260.607C206.691 245.091 186.272 269.463 178.07 284.742C179.433 285.389 180.844 285.957 182.302 286.436V286.436Z" fill="#41416B"/>
<path d="M229.792 257.403L234.264 256.461C242.572 264.668 256.379 264.654 264.674 256.461L269.146 257.403C272.36 258.076 275.523 256.021 276.201 252.801C276.879 249.582 274.819 246.424 271.6 245.746L263.577 244.057C260.964 243.507 258.415 244.556 257.182 246.92C253.937 251.938 245.007 251.945 241.757 246.92C240.524 244.556 237.974 243.509 235.362 244.057L227.338 245.746C224.119 246.424 222.059 249.583 222.737 252.801C223.414 256.02 226.574 258.078 229.792 257.403Z" fill="#FCAD6D"/>
<path d="M245 512C320.567 512 388.134 477.779 433.075 423.999C426.994 422.571 422.318 419.44 413.972 414.734C393.4 403.134 372.55 392.343 350.333 385.299C345.121 383.647 339.434 385.842 336.672 390.56C317.685 422.988 284.58 461.723 246.912 461.723C209.244 461.723 176.139 422.989 157.152 390.56C154.389 385.842 148.703 383.646 143.491 385.299C121.274 392.342 100.424 403.134 79.853 414.734C70.056 420.258 65.318 423.615 57.426 424.591C102.367 478.029 169.711 512 245 512Z" fill="#FFF5EE"/>
<path d="M157.152 390.561C154.389 385.843 148.703 383.648 143.491 385.3C121.274 392.344 100.424 403.135 79.853 414.735C70.056 420.259 65.318 423.616 57.426 424.592C77.2 448.104 101.314 467.842 128.53 482.581C151.027 456.945 194.226 450.424 203.648 445.373C203.649 445.373 203.649 445.372 203.65 445.372C184.534 431.098 168.375 409.73 157.152 390.561Z" fill="#FCE6D6"/>
<path d="M215.861 256.214C195.218 259.314 183.732 274.192 178.07 284.74C179.434 285.388 180.844 285.956 182.302 286.435L182.55 286.506C190.581 288.814 197.368 293.862 202.115 300.587L207.597 296.945C210.746 294.853 214.458 293.716 218.237 293.837C220.949 293.924 223.585 293.823 226.112 293.603C203.032 279.726 215.856 256.222 215.861 256.214V256.214Z" fill="#35355E"/>
<path d="M242.19 378.561C221.76 353.044 249.469 330.348 249.469 330.348L249.454 330.314C248.597 330.335 247.735 330.348 246.864 330.348C228.397 330.348 212.862 325.882 207.388 309.083C203.512 297.19 194.372 287.864 182.549 284.466L182.301 284.395C151.22 274.192 141.783 223.253 141.783 223.253C117.892 436.266 246.864 437.442 246.864 437.442C246.864 437.442 269.892 413.161 242.19 378.561V378.561Z" fill="#35355E"/>
</svg>
