<svg width="512" height="512" viewBox="0 0 512 512" fill="none" xmlns="http://www.w3.org/2000/svg">
<g clip-path="url(#clip0_280_2)">
<path d="M441.462 427.091C478.559 384.153 500.999 328.199 500.999 267.002C500.999 131.693 391.309 22.0032 256 22.0032C120.691 22.0032 11.001 131.692 11.001 267.001C11.001 328.198 33.441 384.152 70.538 427.09H441.462V427.091Z" fill="#FFDD40"/>
<path d="M159.243 64.4311C159.236 67.4451 157.567 70.2371 154.857 71.5561C118.923 89.0371 138.297 173.286 138.297 173.286C141.906 173.527 147.749 174.988 150.566 176.353C151.256 172.06 152.382 167.833 153.972 163.748C155.184 160.635 156.699 157.49 158.593 154.519C161.879 149.364 163.376 143.282 162.929 137.202C161.637 119.626 160.193 87.0601 183.393 76.6211C203.047 67.7771 227.157 72.8981 242.532 78.0111C252.517 81.3311 263.333 81.3311 273.318 78.0111C288.693 72.8981 312.802 67.7771 332.457 76.6211C355.591 87.0301 354.209 119.429 352.932 137.052C352.488 143.179 353.945 149.324 357.256 154.519C359.211 157.586 360.762 160.838 361.994 164.049C363.524 168.042 364.613 172.166 365.285 176.354C368.836 174.634 375.978 172.76 380.319 173.374C380.851 154.952 382.551 135.093 382.551 135.093C415.291 -25.2549 159.457 -34.9809 159.243 64.4311V64.4311Z" fill="#41416B"/>
<path d="M247.695 0.168213C200.504 2.26621 159.329 24.5752 159.243 64.4312C159.236 67.4452 157.567 70.2372 154.858 71.5562C118.924 89.0362 138.298 173.285 138.298 173.285C141.907 173.526 147.75 174.987 150.567 176.352C151.257 172.059 152.383 167.832 153.973 163.747C155.185 160.634 156.7 157.489 158.593 154.518C161.879 149.363 163.376 143.281 162.929 137.201C161.638 119.625 160.193 87.0592 183.393 76.6202C197.451 70.2942 213.787 71.1142 227.577 73.9642V71.8982C227.578 71.8972 202.181 24.4132 247.695 0.168213V0.168213Z" fill="#35355E"/>
<path d="M386.934 174.614C381.554 169.683 370.836 172.183 366.202 175.202C367.217 181.524 367.275 187.991 366.398 194.378L360.929 234.206C360.929 237.417 360.828 240.566 360.642 243.661C373.976 247.683 380.6 235.712 381.716 227.497C382.196 223.961 382.982 220.475 384.071 217.074C387.618 205.995 400.414 186.968 386.934 174.614V174.614Z" fill="#FCAD6D"/>
<path d="M376.807 212.297C371.858 212.297 367.487 209.872 364.781 206.156L360.929 234.205C360.929 237.416 360.828 240.565 360.642 243.66C373.977 247.682 380.6 235.711 381.716 227.496C382.196 223.96 382.982 220.474 384.071 217.073C384.989 214.207 386.526 210.806 388.067 207.128C385.337 210.289 381.31 212.297 376.807 212.297V212.297Z" fill="#FD995B"/>
<path d="M281.788 453.188C322.185 428.947 332.159 389.428 334.618 370.504C329.026 357.392 327.24 341.316 326.814 328.948C319.856 337.053 312.553 343.832 305.575 349.25C291.98 359.807 275.203 365.541 257.925 365.541C240.647 365.541 223.87 359.807 210.275 349.25C203.297 343.832 195.994 337.052 189.036 328.947C188.65 340.149 187.148 354.395 182.714 366.725C184.31 383.612 192.644 427.188 235.971 453.188C239.622 455.379 241.12 459.542 240.219 463.274C244.469 465.56 250.417 469.109 256 473.653C265.169 466.189 275.331 461.406 277.311 460.506C277.504 457.633 279.026 454.845 281.788 453.188V453.188Z" fill="#FCAD6D"/>
<path d="M230.369 449.573C251.29 424.811 258.094 389.619 260.195 365.495C259.439 365.517 258.684 365.542 257.925 365.542C240.647 365.542 223.87 359.808 210.275 349.25C203.297 343.832 195.994 337.052 189.036 328.947C188.65 340.15 187.148 354.395 182.714 366.725C184.239 382.854 191.934 423.318 230.369 449.573V449.573Z" fill="#FD995B"/>
<path d="M148.742 175.963L148.741 175.964L148.742 175.963Z" fill="#41416B"/>
<path d="M128.918 174.614C134.298 169.683 145.016 172.183 149.65 175.202C148.635 181.524 148.577 187.991 149.454 194.378L154.923 234.206C154.923 237.417 155.024 240.566 155.21 243.661C141.876 247.683 135.252 235.712 134.136 227.497C133.656 223.961 132.87 220.475 131.781 217.074C128.233 205.995 115.437 186.968 128.918 174.614Z" fill="#FCAD6D"/>
<path d="M364.061 164.047C362.83 160.836 361.279 157.584 359.324 154.517C356.012 149.322 354.556 143.177 355 137.05C356.277 119.428 355.592 84.962 332.458 74.553C312.804 65.71 288.696 70.83 273.322 75.942C263.337 79.262 252.516 79.262 242.531 75.942C227.156 70.829 203.048 65.709 183.395 74.553C160.195 84.992 159.573 119.625 160.865 137.201C161.311 143.281 159.815 149.363 156.529 154.518C154.635 157.489 153.12 160.634 151.908 163.747C147.977 173.845 146.831 184.796 148.304 195.519L153.774 235.356C153.774 292.627 184.346 331.554 210.351 351.748C223.925 362.289 240.676 368.014 257.927 368.014C275.178 368.014 291.93 362.289 305.504 351.748C331.509 331.554 362.081 292.627 362.081 235.356L367.55 195.528C369.006 184.91 367.901 174.066 364.061 164.047V164.047Z" fill="#F9BA8F"/>
<path d="M139.045 212.297C143.994 212.297 148.365 209.872 151.072 206.156L154.924 234.205C154.924 237.416 155.025 240.565 155.211 243.66C141.876 247.682 135.253 235.711 134.137 227.496C133.657 223.96 132.871 220.474 131.782 217.073C130.864 214.207 129.328 210.806 127.786 207.128C130.514 210.289 134.541 212.297 139.045 212.297V212.297Z" fill="#FD995B"/>
<path d="M243.051 351.748C222.435 331.554 198.198 292.627 198.198 235.356L193.861 195.519C192.125 179.567 195.236 164.702 200.381 154.518C202.987 149.362 204.173 143.28 203.819 137.201C202.795 119.625 203.288 84.9921 221.681 74.5531C223.599 73.4641 225.572 72.5891 227.577 71.8971C213.787 69.0471 197.451 68.2271 183.393 74.5531C160.193 84.9921 159.571 119.625 160.863 137.201C161.309 143.281 159.813 149.363 156.527 154.518C149.948 164.84 146.134 179.729 148.302 195.519L153.772 235.356C153.772 292.627 184.344 331.554 210.349 351.748C227.395 364.985 249.285 370.51 270.667 366.964C260.64 364.866 251.135 359.666 243.051 351.748Z" fill="#FCAD6D"/>
<path d="M295.239 194.28C295.239 192.405 295.59 190.622 296.216 189.001C293.78 190.197 291.812 191.551 290.411 192.694C287.143 195.36 281.46 198.741 278.348 200.528C277.76 200.866 278 201.764 278.679 201.764H278.986C281.873 201.764 284.745 202.214 287.487 203.118C292.243 204.684 296.794 205.464 301.003 205.721C297.544 203.349 295.239 199.114 295.239 194.28V194.28Z" fill="#FFF5EE"/>
<path d="M333.941 197.212C328.259 191.881 322.796 188.805 317.744 187.247C318.88 189.294 319.537 191.701 319.537 194.28C319.537 198.494 317.784 202.251 315.045 204.718C319.18 203.863 322.409 202.675 324.408 201.764C328.509 199.897 331.61 199.137 333.454 198.829C334.222 198.7 334.508 197.745 333.941 197.212V197.212Z" fill="#FFF5EE"/>
<path d="M295.452 189.388C294.759 190.971 294.373 192.718 294.373 194.556C294.373 199.314 296.949 203.467 300.781 205.705C306.307 206.065 311.25 205.522 315.299 204.664C318.275 202.3 320.185 198.652 320.185 194.556C320.185 191.873 319.366 189.381 317.964 187.316C308.708 184.389 300.816 186.574 295.452 189.388Z" fill="#41416B"/>
<path d="M307.146 200.314C309.878 200.314 312.093 198.099 312.093 195.367C312.093 192.635 309.878 190.42 307.146 190.42C304.414 190.42 302.199 192.635 302.199 195.367C302.199 198.099 304.414 200.314 307.146 200.314Z" fill="#35355E"/>
<path d="M344.873 178.891C344.133 174.031 341.189 162.736 329.698 160.125C318.095 157.488 293.627 162.459 283.722 164.698C281.083 165.294 278.992 167.302 278.284 169.913L276.243 177.439C276.07 178.078 276.659 178.662 277.296 178.483C284.806 176.376 319.387 167.025 329.922 170.404C337.955 172.981 342.082 176.997 343.905 179.314C344.251 179.753 344.958 179.445 344.873 178.891V178.891Z" fill="#41416B"/>
<path d="M223.247 194.28C223.247 192.405 222.896 190.622 222.27 189.001C224.707 190.197 226.674 191.551 228.075 192.694C231.343 195.36 237.026 198.741 240.137 200.528C240.726 200.866 240.485 201.764 239.806 201.764H239.5C236.613 201.764 233.741 202.214 230.999 203.118C226.243 204.684 221.692 205.464 217.483 205.721C220.941 203.349 223.247 199.114 223.247 194.28V194.28Z" fill="#FFF5EE"/>
<path d="M184.545 197.212C190.228 191.881 195.69 188.805 200.742 187.247C199.606 189.294 198.949 191.701 198.949 194.28C198.949 198.494 200.702 202.251 203.441 204.718C199.306 203.863 196.077 202.675 194.078 201.764C189.977 199.897 186.876 199.137 185.031 198.829C184.264 198.7 183.977 197.745 184.545 197.212V197.212Z" fill="#FFF5EE"/>
<path d="M223.033 189.388C223.726 190.971 224.113 192.718 224.113 194.556C224.113 199.314 221.537 203.467 217.705 205.705C212.179 206.065 207.236 205.522 203.186 204.664C200.21 202.3 198.3 198.652 198.3 194.556C198.3 191.873 199.12 189.381 200.521 187.316C209.778 184.389 217.67 186.574 223.033 189.388V189.388Z" fill="#41416B"/>
<path d="M211.339 200.314C214.071 200.314 216.286 198.099 216.286 195.367C216.286 192.635 214.071 190.42 211.339 190.42C208.607 190.42 206.392 192.635 206.392 195.367C206.392 198.099 208.607 200.314 211.339 200.314Z" fill="#35355E"/>
<path d="M173.612 178.891C174.352 174.031 177.296 162.736 188.787 160.125C200.39 157.488 224.858 162.459 234.763 164.698C237.402 165.294 239.493 167.302 240.201 169.913L242.242 177.439C242.415 178.078 241.827 178.662 241.189 178.483C233.679 176.376 199.098 167.025 188.563 170.404C180.53 172.981 176.403 176.997 174.58 179.314C174.235 179.753 173.528 179.445 173.612 178.891V178.891Z" fill="#41416B"/>
<path d="M288.229 294.353L277.183 298.709C275.941 299.199 274.568 299.255 273.29 298.87L260.56 295.031L247.831 298.87C246.552 299.255 245.18 299.199 243.938 298.709L232.892 294.353C229.84 293.15 228.342 289.7 229.545 286.648C230.745 283.605 234.188 282.095 237.249 283.301L246.377 286.9L258.792 283.156C259.995 282.78 261.249 282.807 262.333 283.157L274.746 286.9L283.874 283.301C286.92 282.102 290.371 283.589 291.579 286.648C292.78 289.701 291.281 293.15 288.229 294.353V294.353Z" fill="#FCAD6D"/>
<path d="M264.73 308.623H257.106C253.825 308.623 251.166 311.282 251.166 314.563C251.166 317.844 253.825 320.503 257.106 320.503H264.73C268.011 320.503 270.67 317.844 270.67 314.563C270.67 311.283 268.01 308.623 264.73 308.623Z" fill="#FCAD6D"/>
<path d="M303.016 161.022C295.32 162.186 288.099 163.708 283.723 164.697C281.084 165.294 278.993 167.301 278.284 169.912L276.243 177.438C276.07 178.077 276.658 178.661 277.296 178.482C281.46 177.314 293.945 173.921 306.041 171.703C301.066 170.744 299.243 164.496 303.016 161.022V161.022Z" fill="#35355E"/>
<path d="M208.438 160.093C200.969 159.26 193.717 159.005 188.788 160.125C177.296 162.737 174.353 174.032 173.613 178.891C173.529 179.444 174.236 179.753 174.582 179.313C176.405 176.996 180.532 172.98 188.565 170.403C192.574 169.117 200.068 169.677 208.225 170.978C203.981 168.516 204.117 162.375 208.438 160.093V160.093Z" fill="#35355E"/>
<path d="M262.226 258.203C261.135 258.424 259.985 258.424 258.894 258.203C210.882 248.48 206.429 279.904 207.138 295.925C207.259 298.651 211.103 299.843 213.298 297.878C220.616 291.33 231.497 290.825 244.903 287.574C254.539 285.237 258.33 281.042 259.805 277.836C260.075 277.249 261.044 277.249 261.314 277.836C262.789 281.042 266.581 285.237 276.216 287.574C289.623 290.825 300.504 291.33 307.821 297.878C310.016 299.842 313.861 298.651 313.981 295.925C314.691 279.904 310.238 248.48 262.226 258.203V258.203Z" fill="#41416B"/>
<path d="M240.634 253.465L245.163 252.512C253.576 260.823 267.558 260.809 275.958 252.512L280.487 253.465C283.741 254.147 286.945 252.066 287.631 248.805C288.317 245.545 286.232 242.347 282.972 241.66L274.847 239.949C272.2 239.392 269.62 240.454 268.371 242.849C265.085 247.931 256.041 247.938 252.751 242.849C251.502 240.455 248.92 239.394 246.275 239.949L238.15 241.66C234.89 242.346 232.804 245.545 233.49 248.805C234.174 252.064 237.375 254.147 240.634 253.465Z" fill="#FCAD6D"/>
<path d="M235.317 457.139L152.368 389.282C129.074 396.042 107.303 405.563 85.8319 417.67C78.8909 421.584 74.4699 424.411 69.6929 426.09C114.629 478.664 181.417 512 256 512C261.013 512 265.985 511.831 270.923 511.534C270.923 505.348 270.923 499.381 270.923 494.336C270.924 472.638 235.317 457.139 235.317 457.139Z" fill="#00ADF4"/>
<path d="M141.068 483.401L175.189 460.455C184.835 439.352 196.077 433.024 203.943 431.475L152.368 389.284C129.074 396.044 107.303 405.565 85.8319 417.672C78.8909 421.586 74.4699 424.413 69.6929 426.092C89.6009 449.382 113.804 468.887 141.068 483.401V483.401Z" fill="#059AE5"/>
<path d="M256 512C330.583 512 397.371 478.664 442.307 426.091C437.53 424.412 433.109 421.585 426.168 417.671C404.696 405.563 382.925 396.043 359.632 389.283L276.683 457.14C276.683 457.14 241.077 472.639 241.077 494.337V511.535C246.015 511.831 250.987 512 256 512V512Z" fill="#26C6F7"/>
<path d="M363.899 385.792L337.782 363.899C335.831 362.263 332.856 363.501 332.631 366.037C331.217 381.955 323.452 424.823 281.045 450.27C275.86 453.381 275.151 460.604 279.706 464.582L305.456 487.072C310.12 491.145 317.137 490.888 321.498 486.492C335.288 472.591 362.271 439.965 367.085 393.624C367.394 390.649 366.191 387.712 363.899 385.792V385.792Z" fill="#49DAFC"/>
<path d="M153.86 385.792L179.977 363.899C181.928 362.263 184.903 363.501 185.128 366.037C186.542 381.955 194.307 424.823 236.714 450.27C241.899 453.381 242.608 460.604 238.054 464.582L212.304 487.072C207.64 491.145 200.623 490.888 196.262 486.492C182.472 472.591 155.489 439.965 150.675 393.624C150.366 390.649 151.569 387.712 153.86 385.792V385.792Z" fill="#26C6F7"/>
<path d="M213.846 431.835L213.847 431.831C191.263 407.595 186.237 378.524 185.128 366.037C184.903 363.501 181.928 362.264 179.977 363.899L153.86 385.792C151.569 387.712 150.366 390.649 150.674 393.623C153.523 421.052 164.139 443.673 175.189 460.454C192.071 423.523 213.846 431.835 213.846 431.835V431.835Z" fill="#00ADF4"/>
<path d="M238.436 256.508C209.554 258.483 206.547 282.56 207.138 295.925C207.259 298.651 211.103 299.843 213.298 297.878C220.616 291.33 231.497 290.825 244.904 287.574C225.802 274.193 238.415 256.537 238.436 256.508Z" fill="#35355E"/>
</g>
<defs>
<clipPath id="clip0_280_2">
<rect width="512" height="512" fill="white"/>
</clipPath>
</defs>
</svg>
