<svg width="512" height="512" viewBox="0 0 512 512" fill="none" xmlns="http://www.w3.org/2000/svg">
<g clip-path="url(#clip0_292_84)">
<path d="M43.683 389.329H468.318C489.104 353.33 501.002 311.555 501.002 266.998C501.002 131.687 391.311 21.996 256 21.996C120.689 21.996 10.998 131.687 10.998 266.998C10.998 311.555 22.896 353.331 43.683 389.329V389.329Z" fill="#49B1F7"/>
<path d="M432.314 351.948C428.78 350.253 424.982 348.805 420.937 347.606L355.787 322.743C352.265 321.299 348.714 319.937 345.118 318.671C342.282 322.276 338.162 326.954 332.709 331.869C328.347 388.566 315.039 448.318 303.695 491.37L354.345 491.433C402.34 470.372 442.3 434.387 468.318 389.327C460.877 373.977 449.538 360.211 432.314 351.948Z" fill="#753616"/>
<path d="M191.841 341.665C180.802 334.265 172.993 326.162 168.135 320.25L158.414 379.739C158.414 379.739 106.287 394.431 106.287 434.158V460.919C121.845 472.944 138.885 483.145 157.092 491.19L209.146 491.255C199.806 443.014 194.651 386.171 191.841 341.665V341.665Z" fill="#753616"/>
<path d="M168.705 320.939C168.043 320.149 167.428 319.391 166.867 318.678C163.286 319.939 159.748 321.295 156.241 322.733L91.0221 347.619C87.0111 348.81 83.2441 350.246 79.7361 351.925C62.4841 360.185 51.1301 373.963 43.6831 389.33C60.2871 418.086 82.5761 443.137 109.001 462.981C109.001 454.129 109.001 444.069 109.001 433.231C109.001 395.231 158.862 381.178 158.862 381.178L168.705 320.939Z" fill="#66290E"/>
<path d="M191.841 341.665C194.988 391.499 201.069 456.811 212.68 508.182C226.741 510.69 241.217 512 256 512C270.717 512 285.13 510.699 299.133 508.212C311.19 464.895 327.744 396.4 332.708 331.87C317.775 345.33 292.75 360.585 255.989 360.585C228.088 360.586 206.946 351.791 191.841 341.665V341.665Z" fill="#6C5475"/>
<path d="M255.989 390.801C290.039 390.801 314.014 377.712 329.233 365.086C330.674 353.995 331.862 342.876 332.708 331.871C317.775 345.331 292.75 360.586 255.989 360.586C228.088 360.586 206.946 351.791 191.84 341.665C192.473 351.681 193.224 362.326 194.115 373.354C209.045 382.843 229.455 390.801 255.989 390.801V390.801Z" fill="#876D93"/>
<path d="M133.801 375.196L158.861 381.177C161.819 381.883 164.566 383.285 166.873 385.267L179.045 395.725L176.794 397.382L179.045 397.725L202.188 379.823C200.232 346.407 200.218 324.383 200.218 324.383L168.641 305.08L129.507 364.328C126.778 368.46 128.986 374.047 133.801 375.196V375.196Z" fill="#945230"/>
<path d="M202.078 377.909L179.045 395.726L146.361 419.784C138.502 425.568 135.283 435.797 138.482 445.016C144.014 460.958 150.504 476.668 157.075 491.19C175.839 499.482 195.838 505.486 216.722 508.852C208.193 460.6 204.067 412.772 202.078 377.909V377.909Z" fill="#B26847"/>
<path d="M377.749 375.196L352.689 381.177C349.731 381.883 346.984 383.285 344.677 385.267L332.505 395.725L334.756 397.382L332.505 397.725L309.362 379.823C311.318 346.407 311.332 324.383 311.332 324.383L342.909 305.08L382.043 364.328C384.773 368.46 382.565 374.047 377.749 375.196Z" fill="#945230"/>
<path d="M365.19 419.784L332.506 395.726L309.473 377.909C307.483 412.79 303.353 460.65 294.815 508.928C315.659 505.61 335.623 499.66 354.364 491.435C360.973 476.844 367.505 461.048 373.068 445.016C376.268 435.797 373.048 425.568 365.19 419.784V419.784Z" fill="#B26847"/>
<path d="M333.154 287.725C317.971 277.529 292.779 266.125 255.99 266.125C218.86 266.125 193.538 277.745 178.398 288.016V288.49C181.013 287.436 184.041 287.476 186.729 288.843C199.361 295.267 225.375 306.214 255.99 306.214C286.605 306.214 312.605 295.283 325.228 288.867C327.779 287.57 330.635 287.475 333.154 288.369V287.725Z" fill="#BEC8F7"/>
<path d="M255.989 306.645C278.354 306.645 298.263 300.882 312.43 295.221C309.703 286.455 308.721 276.759 308.453 268.984C303.155 275.155 297.595 280.317 292.282 284.442C281.93 292.481 269.157 296.847 256 296.847C242.844 296.847 230.07 292.481 219.719 284.442C214.406 280.316 208.845 275.154 203.547 268.984C203.279 276.759 202.297 286.455 199.57 295.221C213.741 300.885 233.643 306.645 255.989 306.645V306.645Z" fill="#FC9460"/>
<path d="M256 19.714C204.231 19.714 161.875 62.07 161.875 113.839V157.708H350.125V113.839C350.125 62.07 307.769 19.714 256 19.714Z" fill="#F9F0E1"/>
<path d="M355.256 153.712C351.153 149.952 341.98 151.858 338.446 154.16C339.221 158.981 339.265 163.913 338.596 168.783L334.426 199.155C334.426 201.603 334.349 204.005 334.207 206.366C344.376 209.433 350.427 200.304 351.278 194.039C351.644 191.342 352.243 188.684 353.074 186.09C355.778 177.643 365.536 163.133 355.256 153.712Z" fill="#FFAA7B"/>
<path d="M156.744 153.712C160.847 149.952 170.02 151.858 173.554 154.16C172.78 158.981 172.736 163.913 173.405 168.783L177.575 199.155C177.575 201.603 177.652 204.005 177.794 206.366C167.625 209.433 161.574 200.304 160.723 194.039C160.357 191.342 159.758 188.684 158.927 186.09C156.222 177.643 146.464 163.133 156.744 153.712Z" fill="#FC9460"/>
<path d="M336.937 144.777C335.998 142.328 334.815 139.848 333.324 137.509C330.799 133.547 329.688 128.861 330.026 124.189C331 110.751 330.478 84.468 312.836 76.53C297.849 69.786 279.464 73.691 267.74 77.59C260.359 80.044 252.38 80.112 244.963 77.808C233.331 88.894 233.078 110.614 233.949 122.467C234.3 127.24 233.125 132.015 230.545 136.062C229.058 138.395 227.869 140.863 226.918 143.307C223.832 151.235 222.932 159.832 224.088 168.251L228.382 199.526C228.382 244.488 252.383 275.049 272.799 290.902C274.955 292.576 277.221 294.08 279.565 295.436C284.078 293.481 288.354 290.964 292.281 287.914C312.112 272.515 335.426 242.829 335.426 199.156L339.596 168.784C340.708 160.687 339.865 152.417 336.937 144.777V144.777Z" fill="#FFC7AB"/>
<path d="M273.082 287.914C253.251 272.515 229.938 242.829 229.938 199.156L225.767 168.777C224.644 160.6 225.518 152.248 228.516 144.548C229.44 142.174 230.595 139.776 232.039 137.51C234.545 133.578 235.686 128.94 235.346 124.304C234.439 111.96 234.782 88.5931 248.662 78.7581C247.178 78.4601 245.708 78.071 244.261 77.59C232.536 73.691 214.152 69.787 199.165 76.53C181.474 84.49 180.999 110.901 181.983 124.304C182.324 128.94 181.182 133.578 178.676 137.51C177.232 139.776 176.077 142.174 175.153 144.548C172.156 152.249 171.282 160.6 172.404 168.777L176.575 199.156C176.575 242.83 199.889 272.515 219.719 287.914C230.07 295.952 242.844 300.318 256 300.318C265.33 300.318 274.463 298.112 282.681 293.967C279.312 292.269 276.092 290.252 273.082 287.914Z" fill="#FFAA7B"/>
<path d="M314.66 219.374C304.608 220.568 288.501 220.235 275.299 209.574C269.564 204.942 261.42 206.872 257.746 212.516C256.938 213.757 255.062 213.757 254.254 212.516C250.579 206.87 242.437 204.941 236.701 209.573C223.5 220.235 207.393 220.567 197.341 219.373C194.589 219.046 193.135 222.561 195.335 224.246C216.918 240.78 237.707 235.279 249.342 229.632C249.378 229.615 249.414 229.597 249.449 229.579C253.602 227.513 258.4 227.513 262.553 229.579C262.589 229.597 262.624 229.614 262.66 229.632C274.295 235.279 295.083 240.78 316.667 224.246C318.866 222.562 317.411 219.047 314.66 219.374V219.374Z" fill="#F9F0E1"/>
<path d="M322.045 4.83104C314.318 -2.89596 302.609 -0.061964 289.51 4.38904C275.943 8.99804 261.662 10.729 247.559 9.58304C240.821 11.901 228.981 18.411 225.83 35.967C221.677 59.111 219.169 86.745 219.013 88.495C218.958 88.768 218.812 89.557 218.667 90.712H334.841C340.87 90.712 346.675 90.191 352.208 89.327C344.112 58.22 331.378 14.164 322.045 4.83104V4.83104Z" fill="#B26847"/>
<path d="M227.307 36.231C231.614 12.231 252.496 9.86202 252.496 9.86202L252.493 9.85402C242.344 9.51202 232.233 7.69802 222.49 4.38802C209.391 -0.0629816 197.682 -2.89598 189.955 4.83002C180.622 14.163 167.889 58.218 159.793 89.325C165.328 90.188 171.135 90.71 177.166 90.71H220.167C220.338 89.457 220.5 88.71 220.5 88.71C220.5 88.71 223 60.231 227.307 36.231V36.231Z" fill="#945230"/>
<path d="M351.626 87.1021C345.671 88.1021 339.385 88.7111 332.84 88.7111C328.479 88.7111 263.102 88.7111 218.971 88.7111C218.459 91.4581 215.367 110.998 229.042 119.125C228.526 119.597 227.944 120.176 227.35 120.847H332.84C342.254 120.847 351.147 119.605 359.26 117.719C357.98 112.292 355.218 100.799 351.626 87.1021V87.1021Z" fill="#945230"/>
<path d="M220.5 88.7111C198.449 88.7111 181.353 88.7111 179.166 88.7111C172.619 88.7111 166.331 88.1011 160.374 87.1011C156.782 100.798 154.02 112.29 152.74 117.719C160.855 119.606 169.75 120.848 179.166 120.848H229.419C230.71 119.565 231.75 118.848 231.75 118.848C215.5 111.464 220.5 88.7111 220.5 88.7111V88.7111Z" fill="#753616"/>
<path d="M400.504 111.5C397.587 106.258 391.125 104.106 385.677 106.616C372.852 112.526 354.153 118.846 332.84 118.846C328.787 118.846 272.034 118.846 228.612 118.846C228.757 118.937 228.893 119.035 229.042 119.124C226.866 121.116 223.508 124.958 223.04 130.018C222.665 134.068 224.227 138.035 227.639 141.83H332.84C358.257 141.83 380.182 134.513 395.325 127.527C401.387 124.731 403.75 117.334 400.504 111.5V111.5Z" fill="#B26847"/>
<path d="M231.75 118.847C204.477 118.847 181.713 118.847 179.166 118.847C157.876 118.847 139.195 112.54 126.371 106.636C120.942 104.136 114.501 106.27 111.573 111.481C108.294 117.318 110.65 124.747 116.73 127.55C131.871 134.53 153.777 141.831 179.166 141.831H229.683C216.887 129.035 231.75 118.847 231.75 118.847V118.847Z" fill="#945230"/>
<path d="M501.002 266.998C501.002 221.467 488.567 178.847 466.93 142.32C448.111 140.408 421.665 143.415 401.963 163.946C369.482 197.794 331.688 285.845 413 304.013C450.82 312.464 474.871 327.161 489.784 340.468C497.068 317.274 501.002 292.596 501.002 266.998V266.998Z" fill="#73C3F9"/>
<path d="M10.998 266.998C10.998 221.467 23.433 178.847 45.07 142.32C63.889 140.408 90.335 143.415 110.037 163.946C142.518 197.794 180.312 285.845 99 304.013C61.18 312.464 37.129 327.161 22.216 340.468C14.932 317.274 10.998 292.596 10.998 266.998V266.998Z" fill="#73C3F9"/>
<path d="M441.711 426.777C435.767 412.958 426.073 404.342 417.942 399.201C411.691 395.249 403.541 399.697 403.541 407.093V462.575C417.506 452.027 430.303 440.019 441.711 426.777V426.777Z" fill="#66290E"/>
<path d="M284.953 351.076V435.788C284.953 443.432 291.207 449.686 298.851 449.686H324.331C331.975 449.686 338.229 443.432 338.229 435.788V327.243C326.044 337.176 308.483 347.255 284.953 351.076V351.076Z" fill="#D3DCFB"/>
<path d="M284.953 435.788C284.953 443.432 291.207 449.686 298.851 449.686H316.504C312.687 445.946 311.937 440.414 311.937 440.414C311.937 440.414 311.937 400.603 311.937 385.309C311.937 375.065 327.769 368.855 338.229 365.382V327.243C326.043 337.176 308.482 347.254 284.953 351.075V435.788Z" fill="#BEC8F7"/>
<path d="M347.791 307.103L338.45 291.613C335.716 287.08 329.947 285.4 325.228 287.798C312.605 294.213 286.604 305.145 255.99 305.145C250.436 305.145 245.036 304.781 239.837 304.153C237.41 306.058 232.066 310.765 227.937 318.085C223.122 326.623 219.217 340.354 227.206 357.922C226.526 357.969 225.696 358.042 224.761 358.145C234.066 360.599 244.457 362.087 255.99 362.087C308.364 362.087 337.261 331.479 347.187 318.454C349.701 315.154 349.933 310.655 347.791 307.103Z" fill="#DEEEFF"/>
<path d="M173.5 291.593L164.169 307.086C162.03 310.638 162.264 315.133 164.777 318.431C172.878 329.063 193.63 351.414 229.463 359.274C212.132 324.509 241.947 304.395 241.947 304.395C217.537 301.819 197.376 293.19 186.727 287.774C182.007 285.373 176.233 287.055 173.5 291.593V291.593Z" fill="#D3DCFB"/>
<path d="M230.549 213.725C218.77 220.297 205.874 220.388 197.34 219.374C194.588 219.047 193.134 222.562 195.334 224.247C209.93 235.428 224.157 236.528 235.441 234.324C226.638 228.716 228.798 218.647 230.549 213.725Z" fill="#EFE1CB"/>
</g>
<defs>
<clipPath id="clip0_292_84">
<rect width="512" height="512" fill="white"/>
</clipPath>
</defs>
</svg>
