<svg width="512" height="512" viewBox="0 0 512 512" fill="none" xmlns="http://www.w3.org/2000/svg">
<g clip-path="url(#clip0_282_473)">
<path d="M282.149 403.419H229.85L226.956 420.197C223.849 438.211 237.72 454.679 255.999 454.679C274.279 454.679 288.149 438.211 285.042 420.197L282.149 403.419Z" fill="#F1D333"/>
<path d="M285.453 424.023C285.4 422.759 285.265 421.483 285.043 420.198L282.149 403.42L241.129 393.96L229.85 403.42L226.956 420.198C226.734 421.483 226.599 422.76 226.546 424.023H285.453Z" fill="#ECC32E"/>
<path d="M384.002 321.549C380.642 315.729 378.873 309.128 378.873 302.407V235.3C378.873 180.845 343.449 134.662 294.388 118.54C292.896 118.05 292.266 116.491 292.927 115.066C295.811 108.851 297.17 101.79 296.522 94.367C295.102 78.1 281.194 57.321 256.052 57.321C233.456 57.321 215.318 75.661 215.318 98.003C215.318 103.985 216.616 109.67 218.946 114.791C219.663 116.367 218.884 118.117 217.241 118.663C168.372 134.894 133.126 180.98 133.126 235.299L133.127 302.408C133.127 309.128 131.358 315.73 127.998 321.55L258.727 347.737L384.002 321.549ZM241.579 98.002C241.579 90.037 248.036 83.581 256 83.581C263.965 83.581 270.421 90.038 270.421 98.002C270.421 105.966 263.964 112.423 256 112.423C248.035 112.424 241.579 105.967 241.579 98.002Z" fill="#F1D333"/>
<path d="M337.666 209.545V276.652C337.666 283.372 339.435 289.974 342.795 295.794L357.664 321.549L377.501 329.523L384.002 321.549C380.642 315.729 378.873 309.128 378.873 302.407V235.3C378.873 182.631 345.734 137.7 299.17 120.223C322.874 142.623 337.666 174.357 337.666 209.545V209.545Z" fill="#ECC32E"/>
<path d="M512 246.11C512 286.826 497.29 324.098 472.9 352.908C468.07 358.614 459.353 358.89 454.067 353.604L453.997 353.534C449.236 348.773 449.009 341.192 453.351 336.047C473.865 311.739 486.245 280.349 486.245 246.11C486.245 211.879 473.863 180.481 453.355 156.171C449.015 151.027 449.243 143.449 454 138.689L454.075 138.614C459.361 133.325 468.081 133.6 472.912 139.309C497.299 168.128 512 205.405 512 246.11Z" fill="#D0D0D0"/>
<path d="M460.491 246.11C460.491 272.283 451.615 296.431 436.71 315.69C431.956 321.832 422.905 322.442 417.413 316.95L417.397 316.934C412.806 312.343 412.388 305.074 416.358 299.937C427.874 285.036 434.736 266.363 434.736 246.111C434.736 225.859 427.874 207.186 416.358 192.285C412.388 187.148 412.806 179.878 417.397 175.287L417.413 175.271C422.905 169.779 431.956 170.388 436.71 176.531C451.615 195.789 460.491 219.937 460.491 246.11V246.11Z" fill="#D0D0D0"/>
<path d="M0 246.11C0 286.826 14.71 324.098 39.1 352.908C43.93 358.614 52.647 358.89 57.933 353.604L58.003 353.534C62.764 348.773 62.991 341.192 58.649 336.047C38.135 311.739 25.755 280.349 25.755 246.11C25.755 211.879 38.137 180.481 58.645 156.171C62.985 151.027 62.757 143.449 58 138.689L57.925 138.614C52.639 133.325 43.919 133.6 39.088 139.309C14.701 168.128 0 205.405 0 246.11H0Z" fill="#D0D0D0"/>
<path d="M51.509 246.11C51.509 272.283 60.385 296.431 75.29 315.69C80.044 321.832 89.095 322.442 94.587 316.95L94.603 316.934C99.194 312.343 99.612 305.074 95.642 299.937C84.126 285.036 77.264 266.363 77.264 246.111C77.264 225.859 84.126 207.186 95.642 192.285C99.612 187.148 99.194 179.878 94.603 175.287L94.587 175.271C89.095 169.779 80.044 170.388 75.29 176.531C60.385 195.789 51.509 219.937 51.509 246.11V246.11Z" fill="#D0D0D0"/>
<path d="M256 146.41C248.531 146.41 241.365 144.752 234.701 141.483C230.87 139.604 229.288 134.974 231.167 131.143C233.046 127.311 237.675 125.73 241.507 127.609C246.035 129.83 250.911 130.957 256 130.957C261.044 130.957 265.881 129.85 270.376 127.667C274.213 125.803 278.838 127.402 280.701 131.241C282.566 135.079 280.966 139.702 277.127 141.566C270.511 144.781 263.403 146.41 256 146.41V146.41Z" fill="#ECC32E"/>
<path d="M384.002 321.549H127.998L84.5159 396.862C82.8329 399.776 84.9369 403.419 88.3019 403.419H423.699C427.064 403.419 429.167 399.776 427.485 396.862L384.002 321.549Z" fill="#F6E266"/>
<path d="M427.484 396.862L384.002 321.548H357.664L363.667 331.945C375.398 352.264 360.734 377.663 337.271 377.663H95.5989L84.5149 396.861C82.8319 399.775 84.9359 403.418 88.3009 403.418H423.698C427.064 403.419 429.167 399.777 427.484 396.862V396.862Z" fill="#F4DD45"/>
</g>
<defs>
<clipPath id="clip0_282_473">
<rect width="512" height="512" fill="white"/>
</clipPath>
</defs>
</svg>
