<svg width="512" height="512" viewBox="0 0 512 512" fill="none" xmlns="http://www.w3.org/2000/svg">
<path d="M301.125 464C294.563 482.562 276.797 496 256 496C235.203 496 217.437 482.562 210.875 464H301.125ZM128 208V328C128 341.281 120.32 359.68 111.039 368.961L96.9609 383.039C87.6797 392.32 80 410.719 80 424V432H364L128.477 196.477C128.156 200.32 128 204.156 128 208V208ZM240 16V48.7969C245.281 48.3203 250.563 48 256 48C261.437 48 266.719 48.3203 272 48.7969V16H240ZM428.32 405.602C425.281 396.797 420.477 388.477 415.039 383.039L400.961 368.961C391.68 359.68 384 341.281 384 328V208C384 137.281 326.719 80 256 80C214.078 80 176.961 100 153.758 131.039L43.3594 20.6406L20.6406 43.3594L468.641 491.359L491.359 468.641L428.32 405.602Z" fill="black"/>
</svg>
