<svg width="512" height="512" viewBox="0 0 512 512" fill="none" xmlns="http://www.w3.org/2000/svg">
<path d="M298.071 445.951H230.683L226.954 467.57C222.951 490.781 240.823 512 264.377 512C287.93 512 305.803 490.781 301.8 467.57L298.071 445.951Z" fill="#F1D333"/>
<path d="M301.625 466.555L298.071 445.951L231.997 438.335L227.13 466.555H301.625Z" fill="#ECC32E"/>
<path d="M429.309 340.46L294.978 309.556L99.4448 340.46L43.4178 437.502C41.2498 441.257 43.9598 445.951 48.2958 445.951H480.458C484.794 445.951 487.504 441.257 485.336 437.502L429.309 340.46Z" fill="#F6E266"/>
<path d="M485.336 437.503L429.309 340.461L414.478 333.186L399.997 340.461L410.241 358.204C427.47 388.046 405.934 425.348 371.476 425.348H50.4358L43.4178 437.503C41.2498 441.258 43.9598 445.952 48.2958 445.952H480.458C484.794 445.951 487.504 441.257 485.336 437.503V437.503Z" fill="#F4DD45"/>
<path d="M429.309 340.46C424.98 332.961 422.7 324.455 422.7 315.796V229.327C422.7 159.161 377.056 99.654 313.84 78.881C311.917 78.249 311.106 76.24 311.958 74.405C315.674 66.396 317.426 57.299 316.591 47.734C314.761 26.774 296.84 0 264.445 0C235.33 0 211.959 23.631 211.959 52.419C211.959 60.127 213.632 67.452 216.633 74.05C217.557 76.081 216.553 78.335 214.436 79.039C151.467 99.953 106.053 159.336 106.053 229.326L106.054 315.796C106.054 324.455 103.775 332.962 99.4448 340.461H429.309V340.46ZM245.795 52.419C245.795 42.156 254.114 33.837 264.377 33.837C274.639 33.837 282.959 42.156 282.959 52.419C282.959 62.682 274.64 71.001 264.377 71.001C254.115 71.001 245.795 62.681 245.795 52.419V52.419Z" fill="#F1D333"/>
<path d="M313.74 78.8469C354.7 107.465 381.493 154.966 381.493 208.724V295.192C381.493 303.851 383.772 312.357 388.102 319.856L399.997 340.46H429.309C424.98 332.961 422.7 324.455 422.7 315.796V229.328C422.7 159.162 377.056 99.6549 313.84 78.8819C313.807 78.8699 313.773 78.8589 313.74 78.8469V78.8469Z" fill="#ECC32E"/>
<path d="M264.377 112.564C255.097 112.564 246.193 110.505 237.915 106.443C234.084 104.563 232.502 99.9338 234.381 96.1028C236.261 92.2718 240.89 90.6898 244.721 92.5688C250.863 95.5828 257.477 97.1098 264.377 97.1098C271.216 97.1098 277.775 95.6078 283.875 92.6458C287.712 90.7808 292.336 92.3828 294.2 96.2208C296.064 100.059 294.465 104.682 290.626 106.546C282.405 110.54 273.574 112.564 264.377 112.564V112.564Z" fill="#ECC32E"/>
<path d="M47.0079 492.098L28.5119 473.602C25.0299 470.12 25.0299 464.475 28.5119 460.993L435.875 53.6301C439.357 50.1481 445.002 50.1481 448.484 53.6301L466.98 72.1261C470.462 75.6081 470.462 81.2531 466.98 84.7351L59.6179 492.098C56.1359 495.58 50.4899 495.58 47.0079 492.098V492.098Z" fill="#DA4A54"/>
</svg>
