<svg width="512" height="512" viewBox="0 0 512 512" fill="none" xmlns="http://www.w3.org/2000/svg">
<path d="M437.018 39.687C431.159 33.828 421.663 33.83 415.804 39.687C409.947 45.545 409.947 55.042 415.805 60.9C458.492 103.585 482 160.339 482 220.707C482 228.991 488.717 235.707 497 235.707C505.285 235.707 512 228.991 512 220.707C512 152.325 485.371 88.038 437.018 39.687V39.687Z" fill="black"/>
<path d="M96.193 39.6879C90.334 33.8289 80.838 33.8309 74.979 39.6879C26.629 88.0419 0 152.328 0 220.707C0 228.991 6.716 235.707 15 235.707C23.284 235.707 30 228.991 30 220.707C30 160.342 53.508 103.588 96.193 60.9009C102.051 55.0429 102.051 45.5459 96.193 39.6879V39.6879Z" fill="black"/>
<path d="M370.357 85.1259C364.5 90.9839 364.5 100.481 370.358 106.34C400.908 136.887 417.732 177.503 417.732 220.707C417.732 228.991 424.449 235.707 432.732 235.707C441.017 235.707 447.732 228.991 447.732 220.707C447.732 169.489 427.787 121.339 391.571 85.1249C385.713 79.2679 376.215 79.2689 370.357 85.1259Z" fill="black"/>
<path d="M141.634 85.133C135.776 79.276 126.279 79.277 120.421 85.134C84.2091 121.35 64.2661 169.497 64.2661 220.707C64.2661 228.991 70.9831 235.707 79.2661 235.707C87.5511 235.707 94.2661 228.991 94.2661 220.707C94.2661 177.51 111.089 136.895 141.635 106.347C147.492 100.488 147.492 90.99 141.634 85.133Z" fill="black"/>
<path d="M383.467 329.633V252.84C383.467 224.83 374.549 198.251 357.678 175.976C343.576 157.36 324.345 142.816 302.739 134.258C299.73 111.146 279.918 93.24 256 93.24C232.082 93.24 212.268 111.146 209.261 134.258C187.655 142.816 168.424 157.36 154.323 175.976C137.451 198.251 128.533 224.83 128.533 252.84V329.633L97.984 390.732C95.66 395.381 95.908 400.904 98.64 405.326C101.373 409.749 106.202 412.44 111.4 412.44H400.6C405.799 412.44 410.627 409.749 413.36 405.326C416.093 400.904 416.342 395.382 414.017 390.732L383.467 329.633Z" fill="black"/>
<path d="M256 476.707C283.005 476.707 306.886 463.123 321.204 442.439H190.795C205.114 463.123 228.995 476.707 256 476.707Z" fill="black"/>
</svg>
