<svg width="512" height="512" viewBox="0 0 512 512" fill="none" xmlns="http://www.w3.org/2000/svg">
<path d="M78.2012 237.051C69.3647 237.076 60.7159 239.602 53.2552 244.337C45.7945 249.072 39.8269 255.823 36.0428 263.808C32.2587 271.793 30.8127 280.687 31.8721 289.459C32.9316 298.232 36.4531 306.526 42.0294 313.38L160.902 458.999C165.14 464.262 170.573 468.437 176.75 471.179C182.926 473.92 189.667 475.149 196.413 474.762C210.842 473.987 223.868 466.268 232.173 453.578L479.102 55.8995C479.142 55.8335 479.185 55.7676 479.228 55.7026C481.545 52.1452 480.794 45.0953 476.011 40.6665C474.698 39.4503 473.149 38.5159 471.46 37.9209C469.772 37.3259 467.979 37.0829 466.193 37.2067C464.408 37.3306 462.666 37.8188 461.076 38.6412C459.485 39.4637 458.081 40.6029 456.947 41.9889C456.859 42.0978 456.767 42.2052 456.674 42.3108L207.643 323.678C206.695 324.749 205.544 325.621 204.257 326.243C202.969 326.865 201.571 327.225 200.144 327.303C198.716 327.38 197.287 327.173 195.94 326.693C194.593 326.213 193.355 325.471 192.297 324.508L109.649 249.298C101.065 241.429 89.8458 237.06 78.2012 237.051V237.051Z" fill="#D6D6D6"/>
</svg>
