<svg width="512" height="512" viewBox="0 0 512 512" fill="none" xmlns="http://www.w3.org/2000/svg">
<g clip-path="url(#clip0_207_157)">
<path d="M394.685 484.734C394.324 482.923 372.333 372.444 372.091 371.309C369.45 358.521 362.294 348.725 351.791 342.414C345.495 338.616 341.92 338.011 337.837 336.756C340.707 337.759 285.21 318.363 262.847 310.547C258.421 309.029 255.448 304.867 255.448 300.188V277.225C226.725 291.587 196.605 290.68 169.87 277.633V300.188C169.87 304.867 166.897 309.03 162.471 310.547C159.319 311.628 173.889 306.632 131.644 321.117H131.615C131.616 321.12 131.618 321.123 131.618 321.123L131.615 321.128L87.512 336.756C85.476 337.357 81.454 338.544 81.71 338.468C71.218 342.381 62.12 349.812 57.022 360.203C53.493 367.361 54.54 364.847 37.415 450.812C31.074 483.648 29.674 486.04 30.467 493.376C32.674 513.882 53.766 511.742 54.337 511.991C94.779 511.991 216.647 511.991 212.809 511.991C213.234 511.991 231.46 511.991 230.327 511.991C258.489 511.991 358.326 511.991 371.007 511.991C371.233 511.915 398.822 514.015 394.685 484.734Z" fill="#6C7D87"/>
<path d="M56.42 484.734L79.013 361.005C78.7 362.508 80.69 344.455 97.674 333.154C78.706 339.875 84.585 337.186 78.754 339.685C67.747 344.656 59.211 353.102 55.002 365.004C53.318 369.784 54.41 365.582 37.416 450.811C31.075 483.647 29.676 486.042 30.468 493.375C32.675 513.881 53.767 511.741 54.338 511.99C56.852 511.99 76.993 511.99 80.096 511.99C61.922 511.991 54.069 501.363 56.42 484.734Z" fill="#566A75"/>
<path d="M100.955 511.991C86.248 511.991 69.308 511.991 54.337 511.991C53.74 511.73 29.699 514.145 30.3 489.083C30.431 483.739 31.1 483.514 37.415 450.811L37.78 448.978H100.955V511.991Z" fill="#DD9A5E"/>
<path d="M62.949 448.979H37.781L37.416 450.811C31.078 483.628 30.432 483.731 30.301 489.083C29.702 514.062 53.864 511.784 54.338 511.991C56.852 511.991 76.993 511.991 80.096 511.991C63.357 511.991 55.721 503.185 56.059 489.083C56.099 487.446 56.709 484.023 62.949 448.979Z" fill="#D18C54"/>
<path d="M169.87 273.671C169.87 337.727 169.87 266.374 169.871 316.826H169.898V318.368C169.898 328.617 176.444 337.727 186.162 340.981C201.758 346.203 221.782 346.798 239.155 340.981C248.874 337.727 255.419 328.618 255.419 318.368V316.826H255.446C255.446 306.787 255.447 279.041 255.447 273.671C227.722 288.454 196.459 287.849 169.87 273.671Z" fill="#DD9A5E"/>
<path d="M195.662 325.39H195.629C195.627 271.761 195.628 289.63 195.627 285.885C186.737 284.103 178.068 281.043 169.869 276.671C169.869 340.727 169.869 266.374 169.87 316.826H169.897V318.368C169.897 328.617 176.443 337.727 186.161 340.981C190.967 342.59 196.042 343.753 201.311 344.425C194.761 335.531 195.762 326.071 195.662 325.39Z" fill="#D18C54"/>
<path d="M100.955 423.702C96.687 423.702 93.227 427.161 93.227 431.43V511.991C98.587 511.991 102.929 511.991 108.682 511.991V431.43C108.683 427.161 105.223 423.702 100.955 423.702Z" fill="#566A75"/>
<path d="M462.833 511.991H212.658C202.22 511.991 193.758 503.529 193.758 493.091C193.758 487.109 198.608 482.259 204.59 482.259H470.901C476.883 482.259 481.733 487.109 481.733 493.091C481.733 503.529 473.271 511.991 462.833 511.991Z" fill="#C6C6C6"/>
<path d="M242.44 493.091C242.44 487.109 247.29 482.259 253.272 482.259H204.59C198.608 482.259 193.758 487.109 193.758 493.091V493.092C193.758 503.53 202.22 511.992 212.658 511.992H261.339C250.901 511.991 242.44 503.529 242.44 493.091Z" fill="#B7B7B7"/>
<path d="M446.446 316.826H229.045C222.245 316.826 216.681 322.39 216.681 329.19V469.895C216.681 476.695 222.245 482.259 229.045 482.259H446.446C453.246 482.259 458.81 476.695 458.81 469.895V329.19C458.81 322.39 453.246 316.826 446.446 316.826Z" fill="#EDEDED"/>
<path d="M242.44 469.895V329.19C242.44 322.39 248.004 316.826 254.804 316.826H229.046C222.246 316.826 216.682 322.39 216.682 329.19V469.895C216.682 476.695 222.246 482.259 229.046 482.259H254.804C248.004 482.259 242.44 476.695 242.44 469.895Z" fill="#DADADA"/>
<path d="M337.75 417.399C347.613 417.399 355.609 409.403 355.609 399.54C355.609 389.677 347.613 381.681 337.75 381.681C327.887 381.681 319.891 389.677 319.891 399.54C319.891 409.403 327.887 417.399 337.75 417.399Z" fill="#DADADA"/>
<path d="M337.754 381.698C324.137 381.676 315.365 396.497 322.279 408.472C329.196 420.452 346.415 420.256 353.204 408.458C339.467 408.439 330.89 393.625 337.754 381.698Z" fill="#C6C6C6"/>
<path d="M210.329 0.121967C143.77 0.375967 87.577 54.712 87.577 123.744V170.594H334.856C334.856 126.197 334.856 140.224 334.856 100.505C334.856 52.632 305.403 41.604 305.403 41.604C268.775 -3.55903 210.378 0.120967 210.378 0.120967" fill="#4C4846"/>
<path d="M227.032 0.859992C151.598 -7.72701 90.212 49.208 87.682 118.872C87.487 123.881 87.618 122.007 87.577 170.594H117.03V123.744C117.03 59.792 165.44 7.61999 227.032 0.859992Z" fill="#3D3938"/>
<path d="M118.03 155.882C102.522 150.356 85.687 160.633 85.687 175.627C85.687 190.617 102.52 200.899 118.03 195.372V155.882Z" fill="#DD9A5E"/>
<path d="M304.403 155.882C319.911 150.356 336.746 160.633 336.746 175.627C336.746 190.617 319.913 200.899 304.403 195.372V155.882Z" fill="#DD9A5E"/>
<path d="M87.952 166.548C78.893 183.745 97.966 202.522 118.03 195.373V177.214C106.329 181.382 93.246 176.6 87.952 166.548Z" fill="#D18C54"/>
<path d="M304.403 177.214V195.373C324.466 202.522 343.539 183.746 334.481 166.548C330.693 173.742 316.108 181.384 304.403 177.214Z" fill="#D18C54"/>
<path d="M301.153 116.757C303.555 116.989 305.403 118.982 305.403 121.395C305.403 200.694 305.455 194.707 305.27 198.394C304.048 222.513 293.733 244.659 276.956 261.028C218.165 318.35 120.061 277.698 117.11 197.292C116.972 193.747 117.03 152.675 117.03 152.791C117.03 134.324 133.419 120.234 151.697 122.873C180.484 127.028 222.503 125.414 259.167 94.074C262.934 90.854 268.652 91.894 271.058 96.227C275.601 104.408 284.634 115.163 301.153 116.757Z" fill="#EDAE6B"/>
<path d="M142.881 197.292C142.763 194.252 142.788 138.615 142.798 122.898C128.421 125.055 117.031 137.398 117.031 152.791C117.031 152.675 116.973 193.747 117.111 197.292C119.286 256.576 173.189 294.239 224.923 286.965C182.445 281.092 144.694 246.704 142.881 197.292Z" fill="#DD9A5E"/>
</g>
<defs>
<clipPath id="clip0_207_157">
<rect width="512" height="512" fill="white"/>
</clipPath>
</defs>
</svg>
