<svg width="512" height="512" viewBox="0 0 512 512" fill="none" xmlns="http://www.w3.org/2000/svg">
<g clip-path="url(#clip0_281_353)">
<path d="M485.616 352.603C495.556 325.953 501.001 297.113 501.001 266.998C501.001 131.687 391.31 21.9961 255.999 21.9961C120.688 21.9961 10.9971 131.687 10.9971 266.998C10.9971 297.113 16.4421 325.953 26.3821 352.603H485.616Z" fill="#E80054"/>
<path d="M408.228 205.191C392.758 221.867 375.159 248.729 367.681 288.872H373.673C385.499 288.872 395.121 298.494 395.121 310.32V468.676C436.577 440.024 468.773 398.933 486.295 350.784C469.591 304.399 434.653 241.972 408.228 205.191V205.191Z" fill="#4B6BB2"/>
<path d="M441.135 357.233C441.135 357.233 407.717 357.366 395.121 336.933V383L441.135 357.233Z" fill="#3C58A0"/>
<path d="M386.605 402.5C383.285 400.023 382.602 395.324 385.079 392.004C408.965 359.991 439.833 357.33 441.136 357.233C445.278 356.928 448.866 360.022 449.176 364.152C449.485 368.27 446.407 371.86 442.295 372.189C441.221 372.282 416.712 374.693 397.102 400.975C394.636 404.276 389.939 404.989 386.605 402.5V402.5Z" fill="#334D96"/>
<path d="M25.7051 350.784C43.2271 398.933 75.4241 440.025 116.88 468.676V310.32C116.88 298.494 126.502 288.872 138.328 288.872H144.319C136.84 248.729 119.241 221.867 103.772 205.191C77.3461 241.972 42.4091 304.399 25.7051 350.784V350.784Z" fill="#3C58A0"/>
<path d="M70.865 357.233C70.865 357.233 117.026 345 117.026 317V384.5L70.865 357.233Z" fill="#334D96"/>
<path d="M408 204.872C395.056 186.894 371.77 176.29 347.252 170.076C335.407 193.273 306.685 216.718 288.793 229.808C278.015 237.693 268.619 247.309 260.903 258.208C258.509 261.59 253.491 261.59 251.096 258.208C243.381 247.309 233.984 237.693 223.206 229.808C205.315 216.719 176.592 193.273 164.747 170.076C140.229 176.291 116.943 186.895 103.999 204.872C103.633 205.38 103.263 205.901 102.894 206.419C118.085 223.174 135.023 249.697 142.321 288.872H369.676C376.974 249.697 393.912 223.174 409.103 206.419C408.736 205.901 408.366 205.38 408 204.872V204.872Z" fill="#3C58A0"/>
<path d="M176.359 288.871C176.199 288.365 176.033 287.864 175.859 287.371C158.75 238.834 195.938 223.061 209.248 219.069C192.816 205.773 173.827 187.854 164.748 170.074C140.23 176.289 116.944 186.893 104 204.87C103.634 205.378 103.264 205.899 102.895 206.417C118.086 223.172 135.024 249.695 142.322 288.87H176.359V288.871Z" fill="#2A428C"/>
<path d="M188.027 92.996C199.717 87.143 212.239 84.372 224.822 84.372H256H287.178C299.761 84.372 312.283 87.143 323.973 92.996C330.834 96.431 337.952 101.158 343.907 107.593C332.442 62.349 307.59 0 257.666 0C208.279 0 182.104 61.014 169.498 106.126C175.15 100.433 181.698 96.164 188.027 92.996V92.996Z" fill="#4B6BB2"/>
<path d="M257.666 0C208.279 0 182.104 61.014 169.498 106.126C175.15 100.433 181.698 96.164 188.027 92.996C199.717 87.143 212.239 84.372 224.822 84.372H247.176C247.684 82.741 247.648 80.973 246.976 79.352C226.292 29.448 282.735 5.838 282.735 5.838C275.177 2.115 266.847 0 257.666 0V0Z" fill="#3C58A0"/>
<path d="M256 108.833H285.498C297.403 108.833 309.25 110.919 320.31 115.323C333.481 120.568 347.664 129.8 351.572 145.71C350.317 137.27 347.829 122.809 343.547 106.186C337.667 99.948 330.695 95.345 323.973 91.979C312.283 86.126 299.761 83.355 287.178 83.355H256H224.821C212.238 83.355 199.716 86.126 188.026 91.979C181.846 95.073 175.455 99.212 169.896 104.706C165.311 120.866 162.454 135.118 160.895 143.997C165.369 129.133 178.999 120.377 191.69 115.323C202.75 110.919 214.597 108.833 226.502 108.833H256Z" fill="#2A428C"/>
<path d="M247.417 83.355H224.821C212.238 83.355 199.716 86.126 188.026 91.979C181.846 95.073 175.455 99.212 169.896 104.706C165.311 120.866 162.454 135.118 160.895 143.997C165.369 129.133 178.999 120.377 191.69 115.323C202.75 110.919 214.597 108.833 226.502 108.833H247.832C247.705 107.497 247.231 106.201 246.41 105.096C240.628 97.321 243.561 90.291 246.189 86.441C246.831 85.5 247.238 84.443 247.417 83.355V83.355Z" fill="#1C2E7A"/>
<path d="M320.31 114.306C309.25 109.901 297.403 107.816 285.498 107.816H256H226.502C214.597 107.816 202.75 109.902 191.69 114.306C176.234 120.461 159.373 132.1 159.373 153.587C159.373 182.098 200.227 215.995 223.207 232.807C233.984 240.692 243.381 250.308 251.097 261.207C253.491 264.589 258.509 264.589 260.904 261.207C268.62 250.308 278.016 240.692 288.794 232.807C311.774 215.995 352.628 182.098 352.628 153.587C352.627 132.099 335.766 120.461 320.31 114.306V114.306Z" fill="#1C2E7A"/>
<path d="M256 202.087L229.265 204.727C229.265 204.727 244.282 228.282 244.282 251.435V252.454C246.674 255.27 248.957 258.184 251.097 261.207C253.491 264.589 258.51 264.589 260.904 261.207C263.044 258.183 265.327 255.27 267.719 252.454V251.435C267.719 228.282 282.735 204.727 282.735 204.727L256 202.087Z" fill="#2A428C"/>
<path d="M326.613 130.695C327.579 127.679 329.761 123.614 330.897 119.435C327.439 117.406 323.839 115.711 320.31 114.306C319.22 113.872 318.116 113.478 317.011 113.089C317.003 114.708 316.903 116.329 316.682 117.942L313.609 140.323C313.609 142.127 313.552 143.897 313.448 145.636C320.941 147.896 324.663 141.169 325.29 136.553C325.559 134.564 326.001 132.606 326.613 130.695V130.695Z" fill="#FCAD6D"/>
<path d="M181.103 119.435C182.238 123.614 184.421 127.679 185.387 130.695C185.999 132.606 186.44 134.565 186.71 136.552C187.337 141.169 191.059 147.895 198.552 145.635C198.447 143.896 198.391 142.126 198.391 140.322L195.318 117.941C195.097 116.329 194.997 114.707 194.989 113.088C193.884 113.477 192.78 113.871 191.69 114.305C188.161 115.711 184.561 117.406 181.103 119.435Z" fill="#FD995B"/>
<path d="M256 217.919C265.694 217.919 275.107 211.65 282.735 205.727C297.348 194.379 314.528 172.504 314.528 140.322L317.601 117.941C317.807 116.443 317.921 114.937 317.944 113.433C307.566 109.644 296.562 107.816 285.499 107.816H256H226.502C215.439 107.816 204.435 109.644 194.057 113.433C194.08 114.936 194.193 116.44 194.399 117.937L197.473 140.323C197.473 172.505 214.652 194.38 229.265 205.728C236.893 211.65 246.305 217.919 256 217.919V217.919Z" fill="#F9BA8F"/>
<path d="M272.872 205.226C257.659 193.412 239.774 170.639 239.774 137.135C239.356 134.007 238.987 131.287 238.661 128.911C237.502 120.456 241.289 112.408 247.808 107.814H226.501C215.438 107.814 204.434 109.642 194.056 113.431C194.079 114.934 194.192 116.438 194.398 117.935L197.472 140.321C197.472 172.503 214.651 194.378 229.264 205.726C236.892 211.649 246.305 217.918 255.999 217.918C263.834 217.918 271.485 213.822 278.158 209.125C276.325 207.852 274.555 206.533 272.872 205.226Z" fill="#FCAD6D"/>
<path d="M298.25 300.023C294.108 300.023 290.75 296.665 290.75 292.523V250.22C290.75 246.078 294.108 242.72 298.25 242.72C302.392 242.72 305.75 246.078 305.75 250.22V292.522C305.75 296.665 302.392 300.023 298.25 300.023Z" fill="#4B6BB2"/>
<path d="M213.75 300.023C209.608 300.023 206.25 296.665 206.25 292.523V250.22C206.25 246.078 209.608 242.72 213.75 242.72C217.892 242.72 221.25 246.078 221.25 250.22V292.522C221.25 296.665 217.892 300.023 213.75 300.023Z" fill="#4B6BB2"/>
<path d="M114.899 400.975C95.273 374.67 70.738 372.277 69.704 372.188C65.593 371.834 62.519 368.225 62.849 364.113C63.18 360 66.744 356.938 70.865 357.233C72.167 357.331 103.036 359.992 126.922 392.004C129.399 395.324 128.715 400.024 125.396 402.5C122.077 404.977 117.376 404.294 114.899 400.975V400.975Z" fill="#2A428C"/>
<path d="M351.427 492.72H160.574C189.901 505.134 222.149 512 256 512C289.851 512 322.099 505.134 351.427 492.72Z" fill="#D3DCFB"/>
<path d="M262.673 501.613C264.015 498.679 263.601 495.252 261.702 492.72H160.574C189.901 505.134 222.149 512 256 512C258.492 512 260.972 511.951 263.447 511.877C261.014 507.788 261.469 504.246 262.673 501.613Z" fill="#BEC8F7"/>
<path d="M373.673 287.371H138.328C125.707 287.371 115.38 297.698 115.38 310.319V467.635C132.331 479.537 150.856 489.346 170.585 496.686H341.416C361.145 489.346 379.67 479.538 396.621 467.635V310.32C396.62 297.698 386.294 287.371 373.673 287.371V287.371Z" fill="#E9EFFF"/>
<path d="M220.484 287.371H138.328C125.707 287.371 115.38 297.698 115.38 310.319V467.635C132.331 479.537 150.856 489.346 170.585 496.686H263.344C263.066 494.839 262.222 493.082 260.832 491.722C232.948 464.436 249 429.015 254.423 419.033C255.428 417.183 255.717 415.031 255.26 412.976L246.545 373.784C245.976 371.225 244.294 369.042 241.949 367.87C200.103 346.946 214.732 302.861 219.813 290.598C220.239 289.563 220.462 288.469 220.484 287.371V287.371Z" fill="#D3DCFB"/>
<path d="M280.383 395.224C282.198 381.803 272.789 369.452 259.368 367.637C245.947 365.822 233.595 375.231 231.781 388.653C229.966 402.074 239.375 414.425 252.796 416.24C266.217 418.055 278.568 408.646 280.383 395.224Z" fill="#BEC8F7"/>
<path d="M268.261 391.788C268.261 385.017 262.772 379.527 256 379.527C249.229 379.527 243.739 385.016 243.739 391.788C243.739 398.559 249.228 404.049 256 404.049C262.771 404.049 268.261 398.559 268.261 391.788Z" fill="#D3DCFB"/>
<path d="M500.964 264.013C499.884 173.752 450.007 95.2401 376.476 53.6321C368.1 65.4391 359.626 82.6431 366.802 97.5921C379.166 123.351 355.468 144.473 416.259 170.747C476.001 196.568 438.23 268.145 500.964 264.013Z" fill="#FF4155"/>
<path d="M11.0361 264.013C73.7701 268.145 35.9991 196.568 95.7411 170.748C156.532 144.474 132.834 123.352 145.198 97.5931C152.374 82.6441 143.9 65.4401 135.524 53.6331C61.9931 95.2401 12.1151 173.751 11.0361 264.013V264.013Z" fill="#FF4155"/>
</g>
<defs>
<clipPath id="clip0_281_353">
<rect width="512" height="512" fill="white"/>
</clipPath>
</defs>
</svg>
