<svg width="303" height="172" viewBox="0 0 303 172" fill="none" xmlns="http://www.w3.org/2000/svg">
<path fill-rule="evenodd" clip-rule="evenodd" d="M229.565 160.229C262.212 149.245 286.931 118.241 283.39 73.419C278.009 5.31898 212.365 -11.574 171.472 8.48698C115.998 35.7 108.972 40.16 69.239 40.16C39.645 40.16 9.51303 54.414 5.74703 92.951C3.01703 120.884 13.999 145.266 54.637 157.715C128.599 180.372 198.017 170.843 229.565 160.228V160.229Z" fill="#364147"/>
<path fill-rule="evenodd" clip-rule="evenodd" d="M131.589 68.942H131.599C137.86 68.942 142.935 63.679 142.935 57.186C142.935 50.693 137.86 45.43 131.599 45.43C126.518 45.43 122.218 48.896 120.777 53.672C120.004 53.4032 119.191 53.2663 118.373 53.267C114.199 53.267 110.815 56.777 110.815 61.105C110.815 65.433 114.199 68.942 118.373 68.942H131.589ZM105.682 128.716C109.186 128.716 112.026 125.908 112.026 122.446C112.026 118.983 109.186 116.176 105.682 116.176C104.526 116.176 103.442 116.481 102.509 117.015V116.959C102.509 110.467 97.183 105.203 90.613 105.203C85.323 105.203 80.838 108.616 79.293 113.335C78.5888 113.139 77.861 113.04 77.13 113.041C72.75 113.041 69.2 116.55 69.2 120.878C69.2 125.207 72.75 128.716 77.13 128.716H105.682V128.716Z" fill="#F1F1F2" fill-opacity="0.38"/>
<path d="M53.7838 46.7138L18.3987 42.9947C14.2793 42.5617 10.5888 45.5502 10.1559 49.6697L1.26383 134.272C0.830858 138.391 3.81934 142.082 7.93878 142.515L43.3239 146.234C47.4433 146.667 51.1338 143.678 51.5667 139.559L60.4588 54.9567C60.8917 50.8373 57.9033 47.1468 53.7838 46.7138Z" fill="#42CBA5" stroke="#316474"/>
<path d="M53.9789 43.0346L18.7698 39.334C14.6504 38.901 10.9599 41.8895 10.5269 46.009L1.67109 130.267C1.23812 134.386 4.2266 138.077 8.34604 138.51L43.5551 142.21C47.6745 142.643 51.365 139.655 51.798 135.535L60.6538 51.2775C61.0868 47.1581 58.0983 43.4676 53.9789 43.0346Z" fill="#EEFAF6" stroke="#316474"/>
<path d="M57.16 51.735L48.592 133.759C48.5171 134.477 48.3014 135.174 47.9571 135.809C47.6129 136.444 47.1469 137.004 46.5857 137.459C46.0246 137.914 45.3793 138.253 44.6868 138.458C43.9943 138.663 43.2682 138.73 42.55 138.654L9.58001 135.189C8.12934 135.036 6.79872 134.313 5.88051 133.18C4.96229 132.046 4.53159 130.595 4.68301 129.144L13.252 47.12C13.327 46.4019 13.5428 45.7055 13.887 45.0708C14.2313 44.436 14.6972 43.8753 15.2582 43.4208C15.8192 42.9662 16.4643 42.6266 17.1566 42.4214C17.8489 42.2163 18.5749 42.1495 19.293 42.225L24.552 42.778L47.004 45.138L52.263 45.69C53.7139 45.8428 55.0447 46.5653 55.9632 47.6988C56.8816 48.8323 57.3124 50.284 57.161 51.735H57.16Z" fill="#DFF3ED" stroke="#316474"/>
<path d="M26.2 102.937C27.063 103.019 27.932 103.119 28.802 103.21C29.04 101.032 29.271 98.844 29.492 96.664L26.882 96.39C26.644 98.568 26.405 100.755 26.201 102.937H26.2ZM23.47 93.329L25.74 91.496L27.577 93.76L28.712 92.843L26.874 90.577L29.144 88.744L28.224 87.611L25.955 89.445L24.118 87.181L22.982 88.097L24.821 90.362L22.551 92.197L23.471 93.329H23.47ZM22.654 98.615C22.526 99.915 22.389 101.215 22.244 102.514C23.121 102.623 23.992 102.697 24.87 102.798C25.016 101.488 25.145 100.184 25.283 98.873C24.405 98.781 23.53 98.655 22.654 98.615V98.615ZM39.502 89.778C38.996 94.579 38.483 99.371 37.986 104.174C38.866 104.257 39.734 104.366 40.614 104.441C41.11 99.647 41.614 94.863 42.127 90.071C41.263 89.928 40.38 89.879 39.502 89.778V89.778ZM35.238 92.446C34.849 96.218 34.435 99.987 34.055 103.76C34.925 103.851 35.795 103.934 36.656 104.033C37.103 100.121 37.482 96.193 37.911 92.278C37.056 92.128 36.18 92.097 35.322 91.972C35.282 92.128 35.253 92.286 35.238 92.446ZM31.106 94.182C31.063 94.341 31.046 94.511 31.029 94.672C30.732 97.568 30.412 100.452 30.124 103.348L32.734 103.622C32.858 102.602 32.948 101.587 33.064 100.567C33.261 98.531 33.519 96.492 33.691 94.452C32.828 94.372 31.967 94.282 31.106 94.182Z" fill="#316474"/>
<path d="M17.892 48.489C17.8497 48.9223 17.9802 49.3548 18.2551 49.6925C18.53 50.0301 18.9271 50.2456 19.36 50.292C19.7948 50.3397 20.2308 50.2128 20.572 49.9392C20.9133 49.6657 21.132 49.2678 21.18 48.833C21.2223 48.3997 21.0918 47.9672 20.8169 47.6295C20.542 47.2919 20.1449 47.0764 19.712 47.03C19.2772 46.9823 18.8413 47.1092 18.5 47.3828C18.1587 47.6563 17.9401 48.0542 17.892 48.489V48.489ZM231.807 136.678L197.944 139.04C197.65 139.06 197.404 139.02 197.249 138.96C197.218 138.949 197.188 138.935 197.16 138.918L196.456 128.876C196.482 128.856 196.509 128.838 196.538 128.822C196.683 128.741 196.921 128.668 197.215 128.647L231.078 126.285C231.372 126.265 231.618 126.305 231.773 126.365C231.814 126.381 231.842 126.395 231.861 126.407L232.566 136.449C232.54 136.469 232.513 136.487 232.484 136.503C232.273 136.608 232.042 136.668 231.807 136.678V136.678Z" fill="white" stroke="#316474"/>
<path d="M283.734 125.679L144.864 135.363C141.994 135.563 139.493 133.4 139.293 130.54L133.059 41.635C132.858 38.775 135.031 36.285 137.903 36.085L276.773 26.401C279.647 26.201 282.144 28.364 282.345 31.224L288.578 120.129C288.779 122.989 286.607 125.478 283.734 125.679V125.679Z" fill="#EEFAF6"/>
<path d="M144.864 135.363C141.994 135.563 139.493 133.4 139.293 130.54L133.059 41.635C132.858 38.775 135.031 36.285 137.903 36.085L276.773 26.401C279.647 26.201 282.144 28.364 282.345 31.224L288.578 120.129C288.779 122.989 286.607 125.478 283.734 125.679" stroke="#316474"/>
<path d="M278.565 121.405L148.68 130.463C146.256 130.632 144.174 128.861 144.012 126.55L138.343 45.695C138.181 43.385 139.994 41.341 142.419 41.172L272.304 32.114C274.731 31.945 276.81 33.717 276.972 36.027L282.641 116.882C282.803 119.193 280.992 121.236 278.565 121.405V121.405Z" fill="#DFF3ED" stroke="#316474"/>
<path d="M230.198 129.97L298.691 125.193L299.111 131.189C299.166 131.97 299.013 132.667 298.748 133.161C298.478 133.661 298.137 133.887 297.825 133.909L132.794 145.418C132.482 145.44 132.113 145.263 131.777 144.805C131.445 144.353 131.196 143.684 131.141 142.903L130.721 136.907L199.215 132.131C199.476 132.921 199.867 133.614 200.357 134.129C200.929 134.729 201.665 135.115 202.482 135.058L227.371 133.322C228.188 133.265 228.862 132.782 229.345 132.108C229.758 131.531 230.05 130.79 230.198 129.97V129.97Z" fill="#42CBA5" stroke="#316474"/>
<path d="M230.367 129.051L300.275 124.175L300.533 127.851C300.547 128.049 300.521 128.247 300.458 128.435C300.395 128.623 300.295 128.797 300.165 128.947C300.035 129.096 299.876 129.218 299.699 129.307C299.521 129.395 299.328 129.447 299.13 129.461L130.858 141.196C130.459 141.224 130.064 141.093 129.762 140.83C129.459 140.568 129.273 140.196 129.245 139.797L128.987 136.121L198.896 131.245C199.192 131.825 199.652 132.306 200.219 132.627C200.785 132.948 201.434 133.096 202.084 133.051L227.462 131.281C228.112 131.235 228.733 130.999 229.25 130.603C229.766 130.206 230.155 129.667 230.367 129.051V129.051Z" fill="#EEFAF6" stroke="#316474"/>
<path d="M211.755 99.5054C220.569 98.8908 227.215 91.2478 226.6 82.4343C225.986 73.6208 218.343 66.9743 209.529 67.5889C200.716 68.2035 194.069 75.8465 194.684 84.66C195.299 93.4735 202.942 100.12 211.755 99.5054Z" fill="#42CBA5" stroke="#316474"/>
<path d="M208.184 87.11L204.777 84.36L204.776 84.358C204.38 84.0372 203.875 83.8838 203.368 83.9305C202.86 83.9772 202.391 84.2203 202.061 84.608C201.898 84.7999 201.775 85.0225 201.699 85.2626C201.623 85.5027 201.596 85.7556 201.619 86.0064C201.642 86.2572 201.715 86.5009 201.834 86.723C201.953 86.9451 202.114 87.1413 202.31 87.3L202.312 87.301L207.389 91.411V91.412C207.6 91.5834 207.844 91.7087 208.106 91.7801C208.368 91.8515 208.643 91.8673 208.911 91.8265C209.18 91.7858 209.437 91.6893 209.666 91.5434C209.895 91.3974 210.091 91.2052 210.242 90.979L218.283 78.77C218.422 78.5597 218.517 78.3238 218.563 78.0762C218.609 77.8286 218.606 77.5742 218.552 77.328C218.499 77.0819 218.397 76.8488 218.252 76.6426C218.108 76.4363 217.923 76.2611 217.71 76.127C217.28 75.8543 216.759 75.7609 216.261 75.8669C215.762 75.9729 215.325 76.2698 215.043 76.694L208.184 87.109V87.11Z" fill="white" stroke="#316474"/>
</svg>
